<?xml version="1.0" encoding="UTF-8"?><svg xmlns="http://www.w3.org/2000/svg" viewBox="0 0 151.78 163.37"><defs><style>.d{fill:#2d2e83;}</style></defs><g id="a"/><g id="b"><g id="c"><g><path class="d" d="M85.19,78.34c-1.19-4.39-6.86-8.42-11.14-5.56-1.66-.36-3.27,1.29-4.11,2.64-1.19,1.9-1.62,4.27-1.29,6.47,.71,4.72,5.13,7.46,9.71,6.48,4.53-.97,8.12-5.28,6.83-10.02Zm-8.04,6.67c-2.98,.44-5.23-1.7-5.32-4.65-.04-1.34,.37-2.69,1.17-3.78,.54-.74,1.37-1.2,1.8-1.96,2.95,.16,6.18,1.51,6.95,4.66,.71,2.92-1.89,5.32-4.6,5.72Z"/><path class="d" d="M149.54,92.21c-2.34-6.04-6.24-11.06-10.88-15.37,2.72-4.48,4.54-9.34,4.83-14.62,3.2-1.17,5.85-3.95,6.78-7.36,1.38-5.03-1.88-11.96-7.76-11.77-.63,.02-1.15,.52-1.34,1.09-.91-.24-1.84-.28-2.76-.17-.06-.31-.2-.61-.44-.9-9.84-11.72-23.7-11.32-37.01-7-2.01-11.67-5.68-25.36-17.55-28.32-.15-1.52-.65-2.99-1.59-4.27-2.64-3.6-9.45-5.14-12.39-1.15-2.56,.6-4.16,2.73-4.79,5.19-.16,.04-.33,.11-.5,.22-9.63,6.25-15.89,15.51-19.74,25.89-16.88-1.83-42.48,.31-42.09,20.34,.21,10.56,8.43,19.16,16.07,25.42,1.81,1.49,3.66,2.93,5.54,4.35-3.65,3.48-7.1,7.15-10.31,11.03-3.66-1.36-8.45-.76-9.79,3.18-.02,.05-.02,.1-.03,.16-4.01,2.88-5.19,8.19-1.82,12.45,1.22,1.54,2.75,2.57,4.4,3.12-5.19,11.4,5.87,22.85,16.91,24.91,7.95,1.49,16.53,.32,24.89-2,.74,2.42,1.51,4.82,2.35,7.17-6.31,5.55-3.65,20.8,7.48,17.58,1.94-.56,3.66-1.7,5.02-3.19,10.62,8.42,26.01,6.21,34.8-3.9,4.88-5.61,6.51-12.57,7.01-19.82,.28-4.09,.44-8.2,.55-12.31,8.5,1.9,17.18,2.66,25.64,.5,.8,3.69,3.35,6.68,8.1,6.48,5.14-.22,10.2-4.52,10.52-9.81,.13-2.09-.52-4-1.66-5.52,5.92-4.05,3.67-16.14,1.55-21.59Zm-6.3-45.73s.02,0,.02,0c2.56,1.43,4.38,3.48,3.6,6.95-.89,3.99-5.33,7.01-9.21,4.96-2.92-1.54-4.43-5.29-2.62-8.21,1.65-2.65,5.19-3.85,8.2-3.7Zm-8.5-1.15c-1.51,.96-2.78,2.36-3.55,4.04-2.28,5,.86,10.95,5.8,12.85,.94,.36,1.9,.54,2.84,.58-.52,4.11-2.02,7.93-4.13,11.48-2.84-2.34-5.86-4.46-8.92-6.44-7.41-4.79-15.18-9.01-23.11-12.89-.42-3.61-.88-7.22-1.46-10.82-.21-1.32-.43-2.74-.66-4.22,11.68-3.77,23.49-3.88,33.18,5.43Zm-30.56,14.12c9.97,5.02,20.16,10.41,28.84,17.47,.21,.17,.41,.35,.62,.52-5.12,7.1-12.45,13.12-18.66,18.39-3.01,2.56-6.11,5.02-9.27,7.39,.18-14.6-.1-29.24-1.52-43.77Zm-1.9,35.97c-.03,3.48-.09,6.97-.18,10.45-4.12,2.95-8.35,5.75-12.7,8.37-7.63-2.68-14.98-5.86-21.72-8.93-7.79-3.54-15.7-7.5-23.34-11.96-.73-6.5-1.26-13.02-1.55-19.57,8.72-6.48,17.82-12.47,27.37-18.01,3.67-2.13,7.7-4.56,11.95-6.94,6.32,2.8,12.51,5.84,18.53,8.85,1.35,12.53,1.73,25.16,1.63,37.74Zm-16.55,20.96c-1.82,1.04-3.66,2.06-5.52,3.04-9.44,4.96-19.39,9.12-29.65,12.14-2.28-11.23-4.27-22.53-5.69-33.89,1.76,1.03,3.53,2.05,5.31,3.03,11.35,6.28,23.28,11.49,35.56,15.67Zm13.59-69.02c.3,1.95,.57,3.91,.82,5.87-3.15-1.5-6.32-2.95-9.5-4.37-1.57-.7-3.15-1.4-4.73-2.1,4.04-2.15,8.24-4.16,12.49-5.76,.34,2.32,.64,4.48,.93,6.36ZM70.61,3.75c3.23-1.35,7.26-1.49,9.01,2.24,1.62,3.44-.12,7.81-3.71,9.06-3.04,1.07-7.06-.02-8.15-3.31-1.01-3.02,.59-6.05,2.85-7.99Zm-6.16,7.76c.12,.71,.3,1.4,.58,2.03,2.19,4.95,8.73,6.38,13.3,3.97,2.5-1.32,4.22-3.81,4.84-6.53,9.4,3.19,12.79,15.53,14.62,26.22-5.77,2.14-11.36,4.89-16.4,7.59-9.46-4.04-19.12-7.7-29.16-9.89-1.27-.28-2.69-.53-4.21-.77,3.4-8.62,8.65-16.4,16.42-22.62Zm-17.63,25.95c10.49,1.74,20.79,5.21,30.78,9.4-.64,.36-1.27,.71-1.89,1.05-11.13,6.24-22.46,12.92-33.08,20.51-.15-10.59,.94-21.23,4.19-30.97Zm-30.32,35.4c-7.54-7.23-16-20.08-6.46-29.24,7.67-7.37,20.5-7.95,30.46-7,.92,.09,1.84,.21,2.75,.33-2.82,8.9-4.02,18.46-4.13,27.56-.03,2.15-.03,4.33-.01,6.51-4.38,3.28-8.62,6.72-12.65,10.37-3.49-2.69-6.83-5.52-9.97-8.52Zm23.45,17.83c-3.43-2.13-6.78-4.37-10.03-6.72,3.05-2.56,6.15-5.05,9.3-7.48,.13,4.7,.36,9.44,.73,14.2ZM4.56,108.31c-1.94-2.61-1.51-6.44,.5-8.97,.14-.01,.27-.04,.39-.1,2.92-1.44,5.9-3.12,8.76-.34,2.94,2.86,2.47,7.65-.54,10.21-2.77,2.35-6.87,2.22-9.11-.81Zm37.4,25.51c-7.84,1.78-17.32,3.04-24.65-1.2-6.51-3.77-10.16-11.17-8.16-18.42,2.52,.06,5.09-.88,7.12-2.79,4.18-3.91,4.42-10.78,.26-14.83-.11-.1-.23-.19-.34-.29,3.62-3.48,7.3-6.84,11.06-10.08,4.24,3.06,8.6,5.97,13.05,8.71,1.19,12.76,3.33,25.53,6.69,37.65-1.67,.44-3.34,.86-5.03,1.24Zm14.39,24c-4.12,.65-6.13-3.29-5.52-6.89,.45-2.66,2.02-4.51,3.83-6.23,.03,0,.06,.03,.09,.03,3.08,.63,6.54,.24,7.56,4.15,1.03,3.92-2.04,8.32-5.97,8.94Zm43.71-16.07c-4,16.71-21.5,21.53-35.79,14.8,1.54-2.4,2.22-5.33,1.6-8.15-.83-3.8-6.62-9.03-10.55-6.54-.91,.05-1.73,.25-2.48,.54-.49-2.24-.97-4.48-1.43-6.73,7.24-2.26,14.24-5.26,20.46-7.99,6.46-2.84,12.72-6.09,18.79-9.67,3.6,1.15,7.27,2.28,10.99,3.25-.12,6.82-.03,13.95-1.6,20.5Zm-5.81-25.91c2.62-1.63,5.18-3.32,7.72-5.08-.07,2.4-.14,4.81-.22,7.21-2.51-.62-5.01-1.35-7.49-2.13Zm51.68,4.73c-1.01,3.08-4.71,5.61-7.96,5.06-3.08-.52-4.15-3.53-3.99-6.36,.17-3.15,1.83-5.85,4.59-7.16,.11,.86,.89,1.72,2,1.55,1.15-.18,2.19,.08,3.06,.62,.19,.25,.44,.44,.74,.56,1.51,1.38,2.23,3.69,1.57,5.73Zm-.96-9.28c-1.45-.72-3.11-1.03-4.83-.78-.09-.21-.26-.39-.54-.47-5.44-1.46-8.84,4.31-8.85,9.88-8.19,1.33-16.75,.7-25.27-1.09,.07-3.55,.12-7.11,.16-10.65,3.6-2.62,7.11-5.36,10.52-8.22,6.75-5.66,14.77-12.22,20.37-19.95,3.3,3.14,6.2,6.7,8.27,10.77,2.09,4.13,6.6,18.23,.17,20.51Z"/></g></g></g></svg>