<?xml version="1.0" encoding="UTF-8"?><svg xmlns="http://www.w3.org/2000/svg" viewBox="0 0 127.13 143.66"><defs><style>.d{fill:#2d2e83;}</style></defs><g id="a"/><g id="b"><g id="c"><g><path class="d" d="M59.7,12.47c-1.1-5.91-5.37-15.82-13.03-11.34-.43,.25-.65,.64-.73,1.06-7.6,8.05-5.1,34.24,8.54,30.53,7.5-2.04,6.27-14.64,5.22-20.26Zm-10.91,14.69c-4.73-4.66-4.37-16.71-1.14-22.96,.09-.02,.18-.04,.28-.07,6.74-2.44,8.31,8.59,8.59,12.93,.29,4.41-.83,16.89-7.73,10.1Z"/><path class="d" d="M53.47,49.75c-.17-1.7-.34-3.41-.56-5.11-.04-.34-.17-2.82-.58-3.88l.1-.09c.1-.08,.13-.24,.09-.35-.07-.2-.12-.41-.16-.62-.11-.55-.73-.66-1.16-.47-2.29,1.02-1.23,5.2-1.14,7.12,.24,5.11,.54,10.26,1.19,15.33,.25,1.94,3.22,2.08,3.15,0-.14-3.98-.55-7.96-.95-11.92Z"/><path class="d" d="M61.9,61.82c-1.03-7.46-1.42-14.88-1.69-22.39-.05-1.47-2.06-1.39-2.23,0-.98,7.77-.61,15.6,.55,23.33,.33,2.23,3.68,1.27,3.38-.93Z"/><path class="d" d="M78.09,88.1c-4.66-3.7-9.09-7.65-13.26-11.89-1.97-2.01-5.25-7.88-8.47-7.87-2.78,0-4.4,4.5-5.66,6.36-3.84,5.68-8.21,10.83-12.89,15.82-1.01,1.08,.51,2.56,1.61,1.61,3.32-2.87,6.41-5.98,9.27-9.31,1.04-1.22,2.06-2.45,3.03-3.72,.95-1.24,2.91-5.52,4.18-6.14,.41-1.4,1.01-1.08,1.8,.96,.71,.86,1.44,1.7,2.18,2.53,1.48,1.67,2.99,3.3,4.56,4.89,2.88,2.9,5.93,5.59,9.07,8.19,.11,.31,.31,.58,.6,.77,.51,.32,1.03,.65,1.54,.97,1.89,1.19,4.24-1.72,2.43-3.15Z"/><path class="d" d="M12.18,106.7c-.09-1.03-1.59-1.06-1.63,0-.26,6.89-1.21,14.76-.94,22.14-.2,0-.4,0-.6-.03-.96-.1-1.86-.42-2.71-.89-.09-.05-.18-.06-.27-.09-.62-7.13-2.39-14.55-3.97-20.74-.29-1.11-2.19-.92-2.06,.28,.6,5.56,1.4,11.08,1.88,16.66,.42,4.9,.28,9.96,1.51,14.73,.3,1.15,2.28,1.29,2.47,0,.39-2.56,.48-5.31,.36-8.13,1.07,.57,2.34,1.02,3.56,1.08,.17,2.01,.45,3.98,.9,5.85,.34,1.43,2.72,1.53,2.99,0,1.73-9.64-.61-21.17-1.48-30.87Z"/><path class="d" d="M22.6,133.1c.77-1.64,.89-3.44-.82-4.71-1.78-1.32-4.81-.81-5.28,1.56-.25,1.27,1.61,1.81,1.96,.54,.28-.56,.7-.75,1.28-.56,.58,.07,.83,.4,.75,.98,.3,1.06-.37,1.87-1.22,2.39-.18,.09-.37,.18-.55,.29-1.73,.75-.22,3.54,1.52,2.59,2.11-1.15,3.43,1.7,1.95,3.21-1.42,1.45-3.47,.41-5.14,.18-1.35-.18-1.68,1.6-1,2.42,3.02,3.63,9.12,.81,9.89-3.31,.49-2.59-1.15-4.86-3.32-5.58Z"/><path class="d" d="M42.82,131.99c-2.53,2.83-5.25,.88-7.05-1.99-1.21-1.94-.84-5.51-.87-7.73-.05-3.34-.57-18.39,5.5-17.36,.92,.16,1.66-1.14,.69-1.63-11.12-5.59-10.72,19.15-10.03,24.39,.54,4.09,2.04,8.46,6.32,9.88,3.49,1.16,7.46-.13,8.4-3.83,.42-1.64-1.74-3.1-2.96-1.73Z"/><path class="d" d="M90.86,115.93c-.2-6.34-.78-17.26-9.59-16.54-.53,.04-.91,.29-1.17,.61-6.86,.84-7.98,13.23-7.61,18.51,.34,4.93,2.82,17.27,10.43,15.36,6.99-1.76,8.12-12.22,7.94-17.94Zm-6.63,12.23c-5.99,4.77-7.92-6.78-8.12-10.69-.18-3.45,.28-12.86,3.96-15.52,.25,.33,.64,.56,1.19,.58,7.87,.28,7.79,21.78,2.97,25.63Z"/><path class="d" d="M96.84,98.28c-1.12-.28-2.07,.01-3.18,.24-1.08,.22-2.15,.43-3.21,.71-1.35,.36-1.09,2.49,.33,2.45,1.1-.03,2.19-.12,3.28-.21,1.11-.1,2.12-.06,3.11-.64,1.02-.59,.84-2.25-.33-2.55Z"/><path class="d" d="M118.18,127.92c-.44-2.33-2.32-4.39-3.6-6.36-1.38-2.12-2.79-4.22-4.2-6.32,.47-1.52,.88-3.06,1.33-4.57,1.12-3.73,2.35-7.45,3.19-11.25,.44-1.98-2.38-2.75-3.03-.84-1.26,3.68-2.14,7.5-3.12,11.27-.15,.59-.32,1.18-.48,1.77-.42-4.44-.96-8.86-1.47-13.17-.15-1.28-2.02-1.36-2.05,0-.22,10.33-.52,21.28,.98,31.52,.28,1.88,3.09,1.3,3.18-.43,.17-3.37,.11-6.81-.07-10.27,.2-.4,.36-.82,.53-1.23,.84,1.7,1.67,3.41,2.53,5.1,1.06,2.09,1.9,4.75,3.7,6.29,1.2,1.03,2.88,.04,2.59-1.51Z"/><path class="d" d="M125.74,99.79c-.79-.1-1.57,.1-2.36,.27-.2-1.38-.38-2.77-.53-4.16-.14-1.27-1.85-1.28-1.99,0-.16,1.49-.23,2.95-.22,4.42-.65,0-1.29-.02-1.94-.08-1.45-.13-1.8,2.31-.35,2.56,.8,.14,1.6,.24,2.4,.3,.09,1.5,.21,3.05,.97,4.34,.78,1.32,2.48,.6,2.64-.72,.15-1.2-.16-2.4-.44-3.6,.9-.06,1.79-.22,2.52-.71,1.25-.83,.65-2.47-.72-2.64Z"/></g></g></g></svg>