<?xml version="1.0" encoding="UTF-8"?><svg xmlns="http://www.w3.org/2000/svg" viewBox="0 0 270.34 109.26"><defs><style>.d{fill:#2d2e83;}</style></defs><g id="a"/><g id="b"><g id="c"><g><path class="d" d="M13.19,2.76c-.03-1.22-1.79-1.2-1.88,0-.35,4.83-.86,9.99-.86,15.07-.67,.06-1.35,.2-2.06,.26-1.75,.14-3.51,.11-5.26,.21-.07,0-.13,.03-.19,.05-.07-1.74-.14-3.47-.15-5.17-.02-4.24,.37-8.56-.4-12.74C2.29-.18,1.36-.11,1.21,.44-.04,4.86,.15,9.66,.09,14.23c-.07,4.6-.34,9.39,.61,13.9,.27,1.26,1.92,.79,2.06-.28,.33-2.5,.33-5.09,.25-7.67,1.77,.36,3.58,.45,5.39,.44,.71,0,1.42,.03,2.11-.02,.1,2.39,.32,4.75,.77,7.02,.28,1.41,2.15,.89,2.3-.31,.99-7.95-.16-16.55-.39-24.56Z"/><path class="d" d="M22.86,23.99c.27-.49,.43-1.05,.39-1.68-.11-1.91-1.86-3.16-3.68-3-1.19,.1-1.18,1.73,0,1.84,1.31,.13,1.62,1.64,.92,2.13-.48-.03-.97,.01-1.44,.14-1.38,.37-1.09,2.46,.34,2.48,1.35,.02,4.21,.92,3.26,2.87-.67,1.38-2.06,.91-3.02,.29-1.26-.81-2.33,.72-1.85,1.85,1.42,3.29,6.56,1.45,7.55-1.23,.86-2.32-.49-4.58-2.47-5.7Z"/><path class="d" d="M44.27,25.14c-11.77,2.83-12.22-18.83-3.06-21.69,.61-.19,.71-1.2,0-1.34-8.29-1.59-10.01,9.9-9.4,15.72,.67,6.39,6.63,13.75,13.61,10.03,1.53-.81,.46-3.11-1.15-2.73Z"/><path class="d" d="M16.88,76.93c-.09-1.15-1.63-1.11-1.76,0-.64,5.3-1.08,11.15-.97,16.86-1.21-.13-2.47-.07-3.66-.11-1.68-.06-3.36-.11-5.04-.15-.27-5.06-.83-10.14-1.45-14.99-.16-1.23-1.95-1.32-1.99,0-.23,8.62-.16,17.92,1.24,26.43,.22,1.32,2.16,.91,2.23-.3,.18-3.01,.18-6.1,.06-9.21,1.65,.17,3.3,.34,4.95,.49,1.25,.12,2.51,.33,3.76,.33,.13,2.62,.37,5.2,.79,7.64,.24,1.41,2.2,.91,2.32-.31,.83-8.56,.17-18.11-.49-26.69Z"/><path class="d" d="M25.87,101.3c.54-.68,.85-1.52,.76-2.44-.24-2.61-3.47-4.25-5.65-2.73-.8,.56-.34,2.03,.71,1.68,.87-.29,2.39-.21,2.61,1.02,.14,.83-.31,1.24-.89,1.38-.6-.13-1.21-.18-1.79-.15-1.56,.09-1.73,2.07-.35,2.62,.62,.25,1.29,.3,1.94,.19,.87,.22,1.65,.71,1.85,1.63,.42,1.94-1.55,1.67-2.73,1.85-.75,.11-1,1.09-.68,1.67,1.72,3.05,5.77-.18,6.12-2.62,.25-1.77-.6-3.18-1.89-4.1Z"/><path class="d" d="M44.28,98.97c-5.78,2.28-8.31-3.42-8.16-8.28,.17-5.58,3.12-10.58,8.91-11.53,1.07-.17,.68-1.66-.24-1.75-8.56-.86-12.53,8.49-11.75,15.79,.59,5.57,6.35,12.62,12.32,8.33,1.17-.84,.51-3.18-1.08-2.55Z"/><path class="d" d="M84.3,65.91c-5.65-.71-8.02-3.85-7.96-9.55,.04-4.78,1.65-11.14,7.78-10.23,.64,.09,1.42-.74,.74-1.27-6.77-5.31-11.28,4.81-11.63,10.15-.26,3.83,.32,8.09,3.12,10.95,2.19,2.24,5.65,3.75,8.5,1.96,.97-.61,.48-1.88-.54-2.01Z"/><path class="d" d="M93.14,66.15c-.18-7.43-.28-14.88-.68-22.3-.05-.93-1.38-.93-1.44,0-.58,8.08-.59,16.19-.54,24.28,0,1.49,2.35,1.9,2.66,.36,.09-.45,.18-.9,.28-1.35,.09-.42-.05-.76-.27-1Z"/><path class="d" d="M100.58,43.16c-.11-.67-1.02-.41-1.09,.15-.64,5.18-1.04,11-.89,16.63-.97,.04-1.94,.09-2.9,.18-.95,.09-1.8,.21-2.39,1.02-.12,.16-.12,.47,0,.63,.59,.81,1.43,.94,2.39,1.02,1.01,.09,2.02,.14,3.03,.18,.14,2.15,.36,4.26,.7,6.26,.24,1.42,2.15,.87,2.3-.31,1.02-8.09,.18-17.74-1.16-25.77Z"/><path class="d" d="M116.65,56.85c-1.45-.21-3.34-.14-4.76,.28-1.1,.33-1.11,1.91,0,2.24,1.42,.42,3.31,.49,4.76,.28,1.39-.2,1.39-2.61,0-2.8Z"/><path class="d" d="M136.02,44.83c-.56-.79-1.56-.7-2.12-.21-5.51-1-7.19,8.33-7.72,12.17-.55,4.02-1.31,12.01,3.63,13.9,4.9,1.87,8.38-3.91,9.49-7.74,1.81-6.25,.45-12.88-3.29-18.12Zm-.42,19.7c-.79,2.26-2.76,3.03-5.91,2.32-.26-1.02-.52-2.05-.78-3.07-.21-1.57-.13-3.38-.03-4.96,.2-3.07,1.09-11.39,4.99-12.42,3.25,4.92,5.14,12.75,1.73,18.12Z"/><path class="d" d="M155.35,59.64c0-5.13-.84-10.41-2.04-14.91-.17-.65-1.19-.52-1.18,.16,.06,4.09,.23,8.18,.16,12.27-.02,.8-.06,1.6-.11,2.41-.47,.09-.93,.19-1.4,.24-1.5,.15-3.02,.1-4.53,.1-.21-5.06-.82-10.19-1.1-14.98-.08-1.38-2.16-1.4-2.16,0,.03,8.16-.89,17.38,.85,25.36,.21,.95,1.83,1.02,1.99,0,.42-2.71,.53-5.54,.48-8.41,1.49,.22,2.97,.29,4.47,.33,.39,0,.79,.03,1.2,.05-.2,2.4-.4,4.81-.3,7.18,.06,1.33,1.94,1.63,2.34,.32,.77-2.51,1.17-5.26,1.29-8.09h.01c.76-.51,.73-1.56,.03-2.02Z"/><path class="d" d="M73.52,35.35c-3.17-3.09-6.36-6.17-9.57-9.22-1.43-1.36-2.86-2.71-4.31-4.05-.74-.68-5.38-3.98-5.48-4.93-.03-.34-.24-.79-.64-.84l-.2-.03c-.92-.12-1.63,.49-1.45,1.45,.27,1.45,1.47,2.35,2.45,3.4,1.85,1.97,3.74,3.92,5.64,5.85,3.62,3.69,7.28,7.34,10.96,10.97,1.69,1.66,4.3-.94,2.6-2.6Z"/><path class="d" d="M70.33,72.67c-3.65,2.02-6.93,5.01-10.19,7.59-3.63,2.87-7.32,5.7-10.84,8.7-1.06,.91,.33,2.73,1.5,1.94,3.84-2.59,7.56-5.38,11.3-8.11,3.38-2.47,7.1-4.8,10.04-7.79,1.2-1.21-.32-3.17-1.81-2.34Z"/><path class="d" d="M229.56,51.67c-.42-.93-1.64-.94-2.34-.36-.17-.12-.76-.05-1.8,.23-1.13,0-2.25,0-3.38,0-2.26,0-4.51,0-6.76,.05-2.84,.05-5.77-.37-8.17,1.11-.08-.08-.16-.15-.24-.22-13.7-10.39-27.21-21.33-41.66-30.67-1.03-.66-2.25,.89-1.32,1.71,12.46,10.97,26.1,20.71,39.37,30.69-10.94,10.95-21.01,22.79-29.52,35.73-1.27,1.93,1.77,3.63,3.06,1.79,9.14-13.01,19.07-25.29,30.42-36.45,.25-.25,.39-.52,.46-.8,1.5,.76,3,.68,5.05,.77,3.66,.16,7.33,.15,10.99,.14,2.34,0,7.6,.19,5.83-3.71Z"/><path class="d" d="M246.48,41.52c-.22,.02-.4,.1-.56,.19-5.24,.83-6.51,7.08-7.18,11.73-.7,4.91,1.18,11.9,7.38,11.77,10.42-.23,10.03-24.5,.36-23.69Zm3.56,15.39c-.62,2.34-1.04,3.06-3.47,3.85-1.31,1.14-2.34,1.08-3.09-.18-1.24-.93-1.82-2.25-1.73-3.96-.18-1.58,.17-3.24,.42-4.78,.47-2.97,1.07-6.47,3.73-8.19,.09,.06,.17,.11,.27,.15,3.28,1.18,4.2,5.21,4.35,8.29,.08,1.61-.07,3.26-.48,4.82Z"/><path class="d" d="M268.37,39.33c-.19-.95-1.58-.67-1.62,.22-.21,4.5,.03,9,.06,13.51,0,.26,0,.52,0,.78-2.15,.28-4.3,.49-6.45,.78-.51-4.67-1.19-9.35-1.48-13.97-.09-1.43-2.24-1.46-2.25,0-.06,7.54-.28,16.01,1.7,23.33,.39,1.44,2.62,1.16,2.62-.35-.01-2.33-.17-4.68-.4-7.04,2.07,0,4.14-.08,6.21-.1-.07,2.85-.14,5.72,.41,8.5,.23,1.18,2.07,1.13,2.33,0,1.76-7.7,.43-17.94-1.14-25.65Z"/></g></g></g></svg>