<?xml version="1.0" encoding="UTF-8"?><svg xmlns="http://www.w3.org/2000/svg" viewBox="0 0 276.95 171.68"><defs><style>.d{fill:#2d2e83;}</style></defs><g id="a"/><g id="b"><g id="c"><g><path class="d" d="M230.03,116.28c-5.27-3.43-13-4.02-19.13-4.59-.06,0-.11,.02-.17,.02-.07-.1-.15-.19-.23-.27,.74-7.4-2.11-14.4-4.48-21.36-2.85-8.36-5.1-17.43-9.02-25.34-.47-.95-1.48-.84-2.08-.26,.17-.86-.21-1.87-1.2-2.18-6.65-2.1-13.92-2.76-20.75-4.14-7.09-1.43-14.13-3.3-21.27-4.45,.65-5.02-1.11-10.12-3.32-14.55-1.15-2.32-4.61-.28-3.47,2.03,2.03,4.11,2.84,8.44,4.23,12.73-.08,.12-.14,.25-.15,.38-9.55,9.57-19.12,19.17-28.62,28.79-.1-.06-.2-.12-.32-.16-.28-.56-.95-.7-1.41-.44-13.48-4.03-27.56-7.14-41.65-7.43,.02-.12,.02-.25,0-.39-2.86-15.16-8.56-29.72-15.12-43.63-.9-1.92-3.69-.25-2.83,1.66,6.28,13.86,10.95,28.17,15.84,42.56,.07,.21,.19,.36,.32,.48-6.53,3.59-12.28,9.28-17.8,14.21-6.15,5.51-12.17,11.29-17.61,17.52-6.53-1.72-13.25-2.75-19.88-4.06-6.14-1.22-12.3-3.07-18.53-3.65-1.78-.16-1.78,2.3-.39,2.87,6.33,2.59,13.63,3.63,20.34,4.85,5.9,1.07,11.87,2.05,17.87,2.21,0,.03,0,.05,0,.08,1.72,7.19,3.73,14.25,5.9,21.31,.96,3.13,1.93,6.26,2.91,9.39,.57,1.84,2.92,6.43,2.95,9-.46,.45-.67,1.21-.28,1.77,.1,.14,.2,.28,.3,.42,.24,.34,.65,.62,1.08,.73,.08,.08,.15,.15,.26,.21,14.88,7.43,30.64,13.36,46.28,18.94,.92,.33,1.63-.04,2.02-.66,.16-.02,.32-.06,.48-.15,13.56-7.87,26.15-21.84,32.55-36.17,.21-.48,.16-.92-.01-1.28,.39-.01,.77-.14,1.08-.37,12.53,6.8,26.05,13.35,39.47,18.11,.94,.34,1.71-.28,2-1.06,13.96-8.96,23.58-23.55,34.37-35.85h0c3.3,.75,6.54,1.69,9.8,2.61,2.94,.82,5.85,2.08,8.89,2.4,1.62,.17,1.93-2.1,.77-2.85Zm-98.78,16.88c-4.69,6.89-9.06,13.75-14.7,19.95-5.02,5.52-10.65,10.22-16.25,15.08-.18-.16-.39-.29-.65-.38-15.27-5.47-30.3-11.58-45.55-17.07,1.2-4.06-3-11.35-4.06-14.65-2.83-8.75-5.62-17.47-8.85-26.08,.2-.07,.39-.18,.58-.35,5.8-5.45,11.44-11.05,17.36-16.37,5.83-5.24,12.67-9.88,17.94-15.66,.06-.06,.08-.13,.12-.2,13.82,2.75,27.57,5.13,41.15,8.99,.67,6.6,3.32,13.14,5.28,19.37,2.76,8.77,5.46,17.56,8.32,26.3,.05,.16,.12,.29,.2,.42-.32,.07-.64,.27-.89,.64Zm44.11,14.7c-12.63-6.77-26.71-12.41-40.24-17.14-4.45-15.07-9.03-30.15-14.11-45.02,.01-.02,.02-.04,.03-.06,.09-.03,.18-.06,.26-.12,11.13-8.11,21.75-18.35,30.25-29.17,.06-.08,.12-.17,.16-.25,6.43,2.82,13.37,4.35,20.23,5.79,6.97,1.47,14.19,3.43,21.3,3.91,.53,.04,.93-.14,1.22-.43-.02,.14-.03,.29,0,.44,2.93,15.48,13.12,30.38,12.92,46.37-11.01,11.65-20.5,24.49-32.03,35.68Z"/><path class="d" d="M142.17,4.6c-2.79-3.97-9.13-7-12.48-1.96,0,.01,0,.02-.01,.03-.63-.05-1.15,.39-1.39,.97-2.52,6.23-1,13.58,2.97,18.87,3.44,4.59,10.29,8.49,14.14,2.01,3.39-5.69,.25-14.96-3.23-19.92Zm-4.83,18.86c-3.06-1.39-5.21-6.01-6.1-8.95-.71-2.34-1.97-8.01,.41-9.65,.06-.02,.13-.03,.19-.07,4.89-2.76,7.74,2.12,9.31,5.99,.87,2.13,1.52,4.38,1.71,6.69,.21,2.51,.31,8.64-5.52,5.99Z"/><path class="d" d="M250.96,107.57c-3-2.84-7.52-3.3-11.25-1.76-1.57,.65-3.55,2.29-3.52,3.96-.05,.08-.08,.18-.07,.29,.36,4.34,3.3,8.26,5.16,12.12,2.38,4.92,3.86,10.66,6.91,15.17,.68,1.01,2.72,.78,2.56-.69-.48-4.25-2.52-8.46-4.46-12.39,3.27,.05,6.21-3.22,7.25-6.11,1.33-3.66,.23-7.92-2.59-10.59Zm-1.57,10.57c-1.15,1.72-2.97,2.12-4.45,3.36-1.84-3.88-3.78-8.59-7.16-11.3,.7-1.24,5.83-1.91,6.33-1.87,2.49,.21,4.67,1.5,5.72,3.82,.89,1.98,.78,4.17-.44,5.98Z"/><path class="d" d="M274.15,117.36c-1.57-2.35-3.91-4.2-6.73-4.73-2.26-.43-5.25,.67-6.73,2.45-1.88-4.22-3.47-8.96-6.6-12.41-.38-.41-1.19-.1-1.14,.47,.36,4.68,2.73,9.12,4.5,13.41,1.81,4.38,3.33,9.28,5.95,13.25,.97,1.47,3.27,.56,2.85-1.2-.86-3.69-2.59-7.2-4.24-10.67,.33-1.51,2.63-2.35,4.01-2.18,1.66,.2,3.17,1.12,4.24,2.37,2.18,2.54,1.92,6.35,4.11,8.67,.74,.79,2.16,.4,2.42-.64,.68-2.73-1.14-6.52-2.65-8.79Z"/></g></g></g></svg>