<?xml version="1.0" encoding="UTF-8"?><svg xmlns="http://www.w3.org/2000/svg" viewBox="0 0 160.43 112.54"><defs><style>.d{fill:#2d2e83;}</style></defs><g id="a"/><g id="b"><g id="c"><g><path class="d" d="M64.84,97.5c.09-13.32-.35-26.66-.88-39.96-.53-13.49,.28-28.72-3.21-41.79-2.44-9.13-14.41-6.22-15.38,2.08-.75,6.45,.24,13.36,.58,19.85,.36,7.03,.73,14.07,1,21.11,.02,.65,.04,1.3,.06,1.95-5.99-.05-12.08,.57-18.02,1.07-3.19,.27-6.25,.48-9.16,1.1-.69-13.37-1.74-26.69-3.12-40C15.61,12.4-.86,12.13,.04,22.91c1.32,15.84,2.4,31.72,3.09,47.6,.32,7.53,.56,15.06,.7,22.59,.12,6.3-1.48,14.6,4.96,18.31,6.5,3.74,13.73-2.41,12.19-9.37,.77,1.88,.04-.16,.03-1.41,0-1.67-.04-3.35-.07-5.02-.05-3.35-.13-6.7-.22-10.04-.06-2.2-.14-4.41-.22-6.61,3.16,.16,6.39-.2,9.69-.39,5.73-.35,11.54-.4,17.26-.92,.14,7.38,.24,14.77,.41,22.15,.32,14.51,20.84,7.2,16.99-2.29Z"/><path class="d" d="M160.23,41.82C158.98,21.26,145.38-2.22,121.71,.17c-.34,.03-.68,.09-1,.15-6.55-.99-13.89,2.62-18.65,6.71-7.52,6.45-10.59,15.76-11.49,25.36-1.01,10.77-.86,21.92-.8,32.74,.06,9.99,1.39,20.46,7.22,28.87,11.38,16.42,32.88,16.03,46.95,3.23,14.25-12.96,17.39-37.19,16.29-55.41Zm-17.1,9.94c-.82,13.39-3.81,35.75-20.69,38.04-19.1,2.59-15.58-28.82-15.37-39.68,.16-8.13-1.04-18.15,2.55-25.72,1.81-3.83,4.91-5.93,8.27-7.72,1.08,.44,2.35,.63,3.83,.48,18.8-1.89,22.28,20.63,21.42,34.59Z"/><path class="d" d="M81.67,99.31c-1.05,.21-2.08,.35-3.1,.45,2.32-3.8,3.8-8.22,1.78-12.33-2.05-4.16-9.22-4.78-9.35,.85-.04,1.62,2.44,2.42,3.18,.86,.91-1.91,1.76,1.03,1.83,1.57,.18,1.3-.23,2.66-.71,3.85-.89,2.23-2.37,4.17-3.9,5.99-1.59,1.9-.46,4.35,1.91,4.62,3.3,.38,6.58,.21,9.8-.62,3.41-.88,1.95-5.91-1.44-5.23Z"/></g></g></g></svg>