<?xml version="1.0" encoding="UTF-8"?><svg xmlns="http://www.w3.org/2000/svg" viewBox="0 0 123.4 179.79"><defs><style>.d{fill:#2d2e83;}</style></defs><g id="a"/><g id="b"><g id="c"><g><path class="d" d="M123.31,160.69c-1.61-13.29-7.07-27.15-11.46-39.74-10.29-29.48-23.94-57.89-40.4-84.43-.27-.43-.64-.66-1.03-.73,.93-7.73,.02-16.78-1.03-24.5,1.99,.31,4.32,.25,6.25-.17,1.73-.38,3.1-1.56,3.58-3.3,.98-3.52-2.27-7.07-5.67-7.4-.41-.04-.71,.13-.92,.37C62.23,.04,51.25-.38,40.78,.46c-.15-.14-.33-.25-.58-.29-4.43-.7-10.81,.99-10.78,6.54,.03,6.29,7.35,6.64,11.89,5.69,.1-.02,.18-.07,.26-.11-1.14,3.84-.52,8.13-.43,12.12,.1,4.65-.1,9.52,.66,14.14-.37,0-.73,.16-.92,.58-12.27,27.39-21.04,56.68-30.73,85.06-5.71,16.71-22.69,50.41,6.29,54.55,13.91,1.99,29.06,.63,43.07,.18,13.83-.45,27.66-1.44,41.31-3.78,8.41-1.44,23.94-2.45,22.48-14.44Zm-6.82,6.38c-2.8,1.81-6.38,2.3-9.57,3-25.06,5.52-50.9,5.98-76.46,5.94-5.39,0-10.97,.24-16.24-1.06-8.9-2.19-12.31-9.39-10.91-18.06,1.86-11.57,7.19-23.07,10.97-34.12,9.32-27.22,20.09-54.17,28.45-81.69,.59,.29,1.45,.1,1.57-.65,.89-5.22,.31-10.73,.13-16.01-.16-4.53,.38-9.54-1.74-13.64-.1-.2-.46-.22-.56,0-.07,.15-.1,.3-.16,.45-.11-.4-.42-.75-.91-.75-2.55-.04-8.06,.04-8.11-3.76-.05-3.58,4.3-4.02,6.91-3.91,.43,.02,.75-.19,.97-.47,10.48,1.37,21.52,1.52,32.01,1.28,.37,0,.64-.14,.86-.32,1.57,.89,3.67,2.18,2.31,4.15-.62,.9-2.41,.8-3.38,.92-1.23,.15-2.46,.26-3.63,.68-.44-.62-1.65-.22-1.71,.63-.39,5-.24,10.02-.09,15.03,.13,4.38-.16,8.91,.86,13.18,.11,.44,.49,.69,.91,.76,12.89,20.71,23.95,42.35,32.83,65.09,4.28,10.95,8.07,22.09,11.41,33.37,1.62,5.46,3.13,10.95,4.52,16.47,1.1,4.38,3.35,10.55-1.23,13.51Z"/><path class="d" d="M112.81,152.02c-1.06-5.27-2.39-10.49-3.92-15.65-3.1-10.44-7.18-20.54-12-30.3-.1-.21-.24-.35-.39-.47,.53-.73,.52-1.92-.42-2.52-10.28-6.53-24.56-6.37-36.26-5.61-12.29,.8-25.2,2.28-36.39,7.74-.38,.19-.53,.52-.53,.87-.03,.08-.05,.16-.08,.24-.5,.06-.95,.63-.62,1.15,.05,.08,.11,.14,.16,.22-3.78,11.02-6.51,22.4-9.54,33.64-1.89,7.01-6.22,16.71-3.07,24.03,2.56,5.94,8.86,6.95,14.67,6.85,11.84-.2,23.75-1.29,35.59-1.83,12.1-.55,24.21-.98,36.31-1.56,5.51-.26,14.98,1.02,17.31-5.66,1.18-3.38-.13-7.83-.8-11.16Zm-18.23-45.93c-.03,.05-.07,.1-.1,.15-.19,.02-.39,.07-.59,.2-10.75,7.08-25.04,8.74-37.67,9.02-10.84,.24-24,.02-32.11-8.2h0c.05-.01,.1,0,.16-.02,11.67-3.63,23.33-5.5,35.54-6.09,12.39-.61,23.06,1.22,34.77,4.94Zm14.25,55.32c-.27,3.47-1.94,4.93-5.01,4.37-2.08,.16-4.18,.2-6.26,.31-4.59,.23-9.18,.46-13.77,.73-8.76,.51-17.53,1.01-26.29,1.46-8.76,.45-17.52,.94-26.29,1.25-3.43,.12-7,.51-10.42,.15-7.38-.77-10.05-6.3-9.12-13.07,2.2-15.94,8.6-31.35,12.01-47.14,7.05,8.47,19.81,9.14,30.21,9.19,7.96,.04,15.95-.78,23.74-2.41,6.21-1.3,12.87-2.86,17.54-7.37,3.74,7.73,7,15.66,9.63,23.85,2.2,6.85,5.39,15.12,5.61,22.34,.9,2.31,.37,4.42-1.57,6.34Z"/><path class="d" d="M90.34,121.13c-.57,.53-.12,1.5,.62,1.5,.99,0,1.87,.77,1.38,1.79-.43,.91-1.65,1.31-2.6,1.27-.82-.04-1.79-.37-2.25-1.1-.6-.96-.09-2.6,1.2-2.58,.65,.01,.83-1.05,.16-1.16-2.12-.36-3.98,1.34-3.94,3.49,.04,2.61,2.91,4.12,5.23,4.04,2.44-.08,5.22-1.91,5.14-4.6-.07-2.34-3.01-4.45-4.95-2.66Z"/><path class="d" d="M97.85,129.72c-.7-.67-2.22,0-1.79,1.04,.02,.05,.04,.09,.06,.14-1.16-.76-2.55-.3-3.24,.88-.82,1.42-.07,3.06,1.39,3.66,1.42,.58,3.07,.14,3.97-1.11,.96-1.34,.81-3.44-.39-4.6Zm-1.47,2.98c-.16,.47-.53,.7-1.02,.64-1.26-.15-.36-1.78,.43-1.5,.29,.1,.5-.06,.58-.29,.11,.37,.15,.75,.02,1.14Z"/><path class="d" d="M85.07,134.71c-.73-.05-1.17,.84-.82,1.43,.77,1.29,1.77,2.1,1.61,3.77-.17,1.68-1.53,2.67-3.18,2.46-4.17-.55-2.99-5.93,.5-6.6,.77-.15,.52-1.24-.17-1.29-2.78-.23-5.07,1.99-5.44,4.68-.4,2.88,1.87,5.24,4.61,5.71,2.78,.48,5.51-1.09,6.18-3.89,.56-2.3-.46-6.08-3.28-6.26Z"/><path class="d" d="M94.77,145.6c-.39-.11-.95,.07-1.13,.46-.04,.08-.07,.16-.1,.24-.12,.31,.02,.75,.26,.97,1.3,1.19,1.69,3.79-.69,3.84-2.38,.05-2.45-2.96-.97-4.2,.4-.34-.03-.99-.5-.86-1.79,.5-2.79,2.28-2.68,4.09,.14,2.12,2.07,3.66,4.15,3.66,2.04,0,3.94-1.35,4.33-3.4,.38-1.96-.66-4.24-2.67-4.81Z"/><path class="d" d="M72.98,152.83c-.43-.12-.8,0-1.07,.25-.06-.09-.15-.16-.27-.2-2.1-.7-4.41,.43-5.11,2.57-.75,2.31,.77,4.53,2.95,5.26,2.14,.71,4.43-.27,5.31-2.36,.76-1.81,.39-4.91-1.82-5.53Zm-.58,4.13c-.21,.95-.98,1.46-1.93,1.24-2.8-.63-1.36-4.3,1.03-4.23,.01,0,.02,0,.03,0,0,.2,.03,.4,.12,.6,.41,.85,.98,1.36,.75,2.4Z"/></g></g></g></svg>