<?xml version="1.0" encoding="UTF-8"?><svg xmlns="http://www.w3.org/2000/svg" viewBox="0 0 230.42 297.78"><defs><style>.d{fill:#2d2e83;}</style></defs><g id="a"/><g id="b"><g id="c"><g><path class="d" d="M222.27,278.97c-8.14-5.64-18.86-4.69-28.24-4.49-7.18,.15-14.36,.16-21.54,.09,5.46-3.14,8.62-8.73,8.53-15.37-.01-1.01-1.28-1.97-2.21-1.27-1.07,1.05-2.31,1.6-3.74,1.64,7.16-7.73,5.91-19.29-2.88-25.8-.87-.65-2.21,.22-2.16,1.24,.28,1.75,.03,3.35-.72,4.8-1.11-1.17-2.42-1.91-4.12-2.78-5.76-2.95-8.35-6.16-5.86-12.9,.34-.92-.52-1.68-1.33-1.75-7.33-.67-11.82,5.92-14.2,12.05-2.71,7-2.71,14.3-.65,21.33-4.35-1.85-7.82-4.73-10.45-8.92-.86-1.37-2.94-.79-3,.81-.45,11.39,5.81,22.25,16.6,26.35-9.08-.28-18.16-.63-27.24-.95-24.96-.88-49.95-1.58-74.91-.3-2.52,.13-5.98,.31-9.75,.72-.55-35.2-.74-70.39-.51-105.59,.12-17.56,.34-35.12,.65-52.68,.31-17.94,1.43-35.99,.81-53.92,0-.1-.03-.17-.06-.25,3.48-1.61,6.07-4.8,7.73-8.46,5.31,1.22,10.75,.57,16.16,.26,7.52-.44,15.04-.78,22.56-1.02,14.63-.45,29.28-.44,43.92-.23,.06,0,.12-.01,.18-.02,.47,.93,1.06,1.79,1.79,2.53,2.65,2.69,6.42,2.92,9.96,2.44-.08,2.3,.13,4.59,1.68,6.27,.12,.13,.27,.21,.44,.27,.14,.49,.52,.92,1.17,.98,.64,.06,1.29,.12,1.93,.18-12.59,30.58-25.74,60.85-39.4,90.97-3.17,6.99-6.34,13.99-9.46,21-2.77,6.21-5.95,12.49-7.05,19.27-1.62,9.89,2.68,18.19,12.86,20.36,6.08,1.29,12.62,.75,18.78,.93,8.68,.25,17.34,.74,26,1.28,16.48,1.02,32.98,2.1,49.49,1.69,10.08-.25,24.5-.15,28.94-11.38,4.56-11.55-4.34-25.99-8.61-36.27-14.82-35.61-29.12-71.43-43.66-107.16,2.49-.17,4.95-.41,7.35-.77,.36-.05,.61-.23,.75-.46,.41,.01,.83-.2,1.03-.74,3.38-9.34,3.61-20.37,.71-29.87-.27-.89-1.01-1.16-1.67-1-.08-.35-.33-.64-.84-.72-4.01-.63-8.11-.71-12.2-.74,.2-1.51,.27-3.05,.35-4.57,.06-1.12,.15-2.24,.12-3.36,.68,.16,1.46,.5,1.86,.57,.98,.17,2.04,.09,2.98-.2,1.84-.57,3.44-2.02,4.24-3.76,1.19-2.61,.05-8.87-3.53-8.93-.12-.33-.37-.61-.81-.69-8.92-1.68-18.51-1.98-27.57-1.86-3.76,.05-7.84,.64-8.24,4.36-2.4,1.65-.4,6.41,1.04,8.04,1.9,2.14,4.73,2.79,7.31,2.01-.23,2.72-.36,5.56-.25,8.3-1.03,.06-2.05,.12-3.08,.22-.33,.03-.58,.26-.72,.55-.64,.12-1.22,.58-1.25,1.42-.05,1.5-.08,3-.12,4.5-4.28-1.45-9.24,.4-11.79,4.02-.19-.14-.42-.25-.72-.26-14.03-.53-28.14-.15-42.18-.22-12.63-.06-26.02-1.3-38.59,.25-1.09-4.8-5.3-7.96-10.11-9.13,.65-7.7,1.35-17.31-.46-25.04,.01-.02,.03-.03,.04-.05C35.73,3.99,32.2,.45,29.59,.05c-2.84-.44-5.83,1.76-5.64,4.75,.04,.59,.37,.95,.79,1.11-.21,4.27-1.58,26.57-.21,26.94-.96-.26-1.47,.68-1.2,1.39-2.46,1.22-4.53,3.2-5.94,5.59-.17-.03-.36-.03-.57,.02-4.16,1.03-8.24,1.39-12.45,1.14-.38-.24-.86-.32-1.32-.1-.18-.02-.37-.03-.55-.04-.72-.07-1.02,.74-.78,1.29-2.28,2.8-2.31,6.76,0,9.7,.39,.5,.97,.24,1.2-.21,4.25,.87,9.06,1.08,13.22-.24,1.53,4.82,5.42,8.81,10.27,10.21-1.66,17.19-1.17,34.76-1.48,52.02-.33,18.09-.62,36.17-.86,54.26-.47,35.75-.68,71.51-.79,107.26,0,.12,.04,.21,.06,.31-9.7,2.61-17.59,7.9-13.28,18.92,.24,.62,.9,.66,1.25,.32,.19,.18,.44,.32,.78,.35,35.79,2.56,71.95,2.24,107.81,1.82,17.55-.21,35.1-.62,52.65-1.23,18.04-.63,36.55-2.6,54.22,2.1,.54,.14,1,.04,1.36-.2,.83,.32,1.83,.06,2.03-1.07,1.26-7.07-2.03-13.43-7.87-17.47Zm-21.17-132c5.53,13.61,11,27.25,16.33,40.94,2.4,6.16,5.35,14.13,1.87,20.43-3.89,7.02-13.3,7.27-20.32,7.61-28.92,1.41-57.74-2.03-86.64-2.55-6.32-.11-14.45,.57-19.31-4.31-5.24-5.27-3.31-13.75-1.13-19.92,4.7-13.3,11.47-26.14,17.3-38.98,12.8-28.2,26.13-56.42,36.23-85.73,7.2,.6,14.74,.93,22.08,.62,11.14,27.32,22.47,54.56,33.58,81.89ZM138.48,17.58c-.59-.81-.84-1.78-.91-2.76-.05-.71,.03-1.38-.22-2.01,2.71-4.54,27.36-1.05,32.76-.68,.45,1.34,1.83,1.88,2.28,3.28,.55,1.74-.26,3.42-1.87,4.22-1.54,.77-3.35,.18-4.91,.38-.88-.82-2.64-.58-2.95,.78-.4,1.72-.18,3.48-.09,5.23,.08,1.52,.15,3.04,.35,4.55-.9,0-1.8-.02-2.69-.04-4.71-.1-9.42-.26-14.12-.13,.55-3,.86-6.17,1.03-9.14,.08-1.4-1.19-1.91-2.22-1.57-.15-.04-.3-.06-.47-.02-2.1,.41-4.66-.33-5.96-2.1Zm2.42,30.43c.15-5.1,.34-10.2,.44-15.3,0-.08-.03-.13-.04-.2,.8,.1,1.6,.17,2.4,.25,.44,.49,1.21,.61,1.68,.17,4.1,.34,8.21,.47,12.34,.59,6.59,.19,13.41,.9,19.97,.21,0,.04,0,.07,0,.12,1.56,9.69,1.57,18.24,.15,27.89-.04,0-.08-.03-.12-.03-11.88-.85-24.37-.27-36.32-.23-1.91-3.36-.6-9.75-.49-13.47Zm-2.83-7.3c-.09,3.89-.17,7.78-.25,11.67-.02,.69-.07,1.43-.12,2.18-4.6-.91-9.71-2.3-9.46-8.12,.23-5.29,5.52-6.82,9.84-5.73Zm-92.97,3.86c.06-.71,.05-1.39,0-2.05,12.48,1.67,25.82,.61,38.37,.71,13.88,.11,27.83,.66,41.71,.33-.18,.53-.34,1.07-.42,1.64-.16,1.07-.13,2.15,.04,3.22-13.95-.16-27.89,.07-41.82,.59-12.98,.48-26.33,2.44-39.31,1.93,.77-2.09,1.25-4.28,1.44-6.37Zm-29.51,4.59c-4.36,.45-8.49,1.11-12.95,.89-.78-2.47,0-5.32,1.95-7.04,3.84,.56,7.73,.42,11.53-.39-.44,1.33-.69,2.73-.7,4.17,0,.8,.06,1.59,.18,2.37Zm132.07,222.8c-7.46-4.41-12.75-11.04-14.29-19.27,3.22,3.28,7.07,5.62,11.74,6.96,.99,.28,2.27-.75,1.83-1.83-2.33-5.65-3-11.66-1.73-17.67,1.18-5.57,4.5-13.69,10.82-14.86-.91,3.23-1.08,6.71,.93,9.6,2.79,4.02,8.67,3.83,11.18,8.06,.58,.98,1.85,.85,2.46,0,1.16-1.63,1.84-3.19,2.14-4.92,6.04,6.28,5.15,15.84-1.89,21.44-.92,.73-.31,2.18,.65,2.48,2.36,.73,4.4,.72,6.39-.11-.82,5.19-4.31,9.36-9.5,11.15-.75,.26-1.07,.88-1.08,1.5-6.54-.1-13.07-.26-19.61-.46,.63-.46,.79-1.6-.03-2.09ZM29.96,3.11c1.03,.56,1.35,1.47,1.74,2.36-1.42,8.06-.27,17.77,.43,25.95-1.31-.12-2.63-.11-3.92,.07-.78,.11-1.11,.84-1.04,1.54-.2,.03-.4,.08-.6,.12,1.05-2.57,.7-6.49,.87-8.76,.45-6.29,.28-12.7-.3-18.98-.04-.47-.3-.78-.62-.96,.37-1.42,2.2-2,3.44-1.33Zm-10.39,43.67c.08-6.1,5.24-9.97,10.51-11.71,.17-.06,.3-.14,.41-.24,6.18,1.39,12.17,3.72,10.07,11.81-1.4,5.4-4.33,11.76-10.95,11.37-5.61-.33-10.12-5.71-10.05-11.22Zm7.32,121.08c.26-17.67,.55-35.33,.89-53,.34-17.53,1.6-35.32,.76-52.85,.63,.08,1.28,.13,1.93,.11,1.04-.02,2.02-.18,2.95-.43-1.61,17.31-1.41,34.87-1.75,52.24-.35,17.98-.57,35.96-.69,53.94-.23,35.32-.06,70.64,.55,105.95-1.9,.26-3.84,.6-5.74,1.02,.18-35.66,.59-71.32,1.11-106.98Zm200.2,126.34c-16.23-4.18-32.95-2.88-49.53-2.26-18.38,.68-36.76,1.14-55.15,1.37-36.79,.47-73.54-.8-110.32-.77-.3,0-.52,.1-.71,.23-1.17-11.93,12.5-15.43,21.8-16.15,9.45-.73,18.94-1.06,28.42-1.21,19.15-.3,38.31,.29,57.45,.97,19.16,.69,38.32,1.49,57.49,1.59,12.8,.07,52.51-5.77,50.54,16.23Z"/><path class="d" d="M215.57,191.28c-6.61-17.57-15.82-34.53-24.58-51.1-.27-.52-.7-.73-1.14-.74-.16-.13-.37-.21-.62-.2,.05-.48-.12-.99-.6-1.3-9.02-5.92-21.62-8.11-32.23-8.75-11.71-.71-23.75,.77-34.67,5.16-.03,.01-.05,.03-.08,.05-.36-.2-.88-.17-1.13,.25-8.3,13.77-13.98,29.45-20.12,44.27-3.77,9.1-11.35,23.28,1.64,28.45,5.46,2.17,11.96,1.82,17.71,2.08,8.7,.4,17.4,.77,26.1,1.13,17.37,.71,34.83,1.63,52.23,1.49,.13,.14,.32,.24,.54,.25,5.33,.2,11.34-.64,15.37-4.5,4.74-4.54,3.68-10.94,1.58-16.52Zm-60.22-59.11c11.21,.78,20.53,4.52,30.98,7.82-10.34,2.69-20.87,3.17-31.57,2.69-11.26-.5-22.32-.61-32.15-6.73,10.77-2.86,21.57-4.56,32.74-3.78Zm59.2,67.59c-.41,7.7-8.06,9.24-14.3,10.57-.17-.3-.47-.53-.91-.55-28.56-1.55-57.21-1.5-85.79-2.99-8.43-.44-18.76-2.31-15.75-13.93,1.66-6.41,4.9-12.73,7.46-18.83,5.17-12.33,11.45-24.34,16.07-36.9,.04,.08,.09,.16,.16,.24,7.95,7.72,19.35,7.41,29.76,8.02,12.59,.73,25.18,.43,37.21-3.64,6.48,12.11,12.55,24.42,18.27,36.91,2.81,6.14,8.19,14.2,7.83,21.09Z"/><path class="d" d="M114.3,192.39c-.96-2.69-4-4.62-6.74-3.37-.72,.33-.3,1.37,.38,1.39,1.83,.07,3.83,1.04,4.3,2.98,.42,1.73-.94,3.21-2.55,3.61-3.75,.92-5.04-4.2-2.54-6.34,.57-.49-.16-1.36-.78-1.02-2.34,1.31-3.25,4.2-2.27,6.68,1.07,2.72,4.11,3.76,6.77,2.78,2.73-1,4.46-3.86,3.44-6.7Z"/><path class="d" d="M116.86,179.58c-.64-2.18-3.8-4.59-6-2.95-.11,.08-.19,.21-.24,.34-.12-.03-.26-.02-.4,.05-1.98,.98-2.83,3.36-2.21,5.44,.72,2.37,3.36,3.36,5.61,2.63,2.29-.74,3.96-3.07,3.24-5.51Zm-4.01,3.29c-2.87,.91-4.16-3.26-2.06-4.86,.07-.05,.12-.11,.16-.17,.03,0,.04,.04,.08,.04,1.4,.24,2.83,.52,3.44,2.02,.54,1.34-.32,2.56-1.61,2.97Z"/><path class="d" d="M129.97,185.69c-.19-1.11-.85-2.29-1.82-2.9-.83-.53-2.05-.89-2.85-.16-.13-.06-.28-.1-.43-.08-2.14,.32-3.47,2.49-3.2,4.57,.31,2.34,2.64,3.6,4.84,3.24,2.25-.37,3.87-2.37,3.46-4.66Zm-3.95,2.29c-2.64,.38-2.52-3.22-.59-4.08,0,0,0,0,.02-.01,.73,.64,1.67,.88,2.04,1.96,.37,1.1-.38,1.97-1.46,2.13Z"/><path class="d" d="M132.66,157.35c-.45-3.26-3.82-5.51-6.89-4.37-2.84-1.56-5.48,2.19-5.32,4.85,.19,3.3,2.95,6.28,6.37,6.09,3.27-.19,6.3-3.2,5.84-6.57Zm-5.42,4.04c-5.3,1.28-5.68-8.12-1.48-7.14,.28,.06,.48-.05,.59-.23,1.65,.26,3.22,1.41,3.71,3.02,.6,1.96-.94,3.89-2.82,4.35Z"/><path class="d" d="M140.62,149.99c-.23,.11-.33,.37-.35,.61-.03,.48,.28,.74,.44,1.15,.12,.32,.16,.7,.14,1.04-.03,.61-.38,1.46-.99,1.7-1.62,.63-2.4-2.46-1.25-3.32,.7-.52,.11-1.62-.7-1.19-3.18,1.66-1.47,7.08,2.06,6.77,1.83-.16,3.05-1.83,3.24-3.55,.14-1.27-.8-4.1-2.59-3.2Z"/><path class="d" d="M151.33,184.98c-.98-.21-1.73,1.23-.72,1.71,1.33,.64,2.39,1.8,2.48,3.34,.09,1.63-1.12,2.74-2.68,2.9-1.49,.14-2.89-.69-2.99-2.27-.1-1.53,.91-3.16,2.47-3.4,.66-.1,.5-1.2-.16-1.16-2.35,.14-4.18,2.04-4.27,4.41-.1,2.62,2.11,4.49,4.62,4.54,2.53,.05,4.81-1.67,5.11-4.23,.29-2.51-1.29-5.29-3.86-5.84Z"/></g></g></g></svg>