<?xml version="1.0" encoding="UTF-8"?><svg xmlns="http://www.w3.org/2000/svg" viewBox="0 0 174.81 280.06"><defs><style>.d{fill:#2d2e83;}</style></defs><g id="a"/><g id="b"><g id="c"><g><path class="d" d="M168.57,198.77c-10.09-20.75-32.91-35.13-55.93-26.8-12.19-25.86-24.85-51.48-36.61-77.55-5.9-13.07-11.68-26.19-17.28-39.38-5.29-12.46-9.67-26.16-16.54-37.86,1.79-.67,3.54-1.37,5.22-2.32,1.63-.92,3.51-1.78,4.74-3.21,.28,.02,.58-.04,.87-.23,3.37-2.12,4.25-6.77,1.31-9.7-4.02-4-8.83,.18-13.37,.11-.75-.01-1.07,.56-1.02,1.13-8.37,2.23-16.63,6.46-24.47,9.82-4.3,1.84-11.38,3.69-14.08,8.14-1.23,.81-1.57,2.44-1.34,3.95,.35,2.27,2,3.95,4.09,4.79,3.9,1.56,8.81,.66,12.01-2.06,.89,5.41,4.45,10.94,6.6,15.75,3.02,6.75,6,13.51,8.98,20.28,6.11,13.92,12.18,27.85,18.05,41.88,11.44,27.34,22.42,54.86,33.03,82.53-16.22,9.94-24.02,31.02-20.54,49.43,3.68,19.43,19.19,35.63,38.19,40.77,20.91,5.65,43.49-2.31,57.53-18.41,7.08-8.12,13.79-18.33,16.04-29,2.28-10.82-.72-22.32-5.46-32.07Zm2.75,27.12c-1.18,10.35-7.01,20.06-13.28,28.15-11.94,15.4-30.46,24.28-50.08,21.89-17.86-2.18-33.68-14.92-39.92-31.75-7.41-19.98,.76-40.93,16.62-54.07,1.07,.05,2.19-.85,1.7-2.13-10.87-28.39-22.19-56.61-33.97-84.63-5.73-13.63-11.47-27.26-17.39-40.81-3.12-7.15-6.29-14.29-9.48-21.41-2.17-4.84-3.98-11.26-7.72-15.29,.48-.87-.46-1.69-1.27-1.22l-.03-.02c-.23-.19-.53-.02-.54,.26,0,.05,0,.11,0,.16-2.34,1.84-5.85,2.55-8.78,2.2-1.42-.17-2.92-.67-3.72-1.93-.77-1.2-.35-2.44-.23-3.72,2.46-2.43,6.79-3.47,9.75-4.68,3.81-1.55,7.6-3.17,11.41-4.73,6.31-2.58,13.14-4.73,19.02-8.22,1.71-.32,3.33-.95,5.09-1.25,1.71-.3,3.56-.04,4.51,1.63,1.02,1.79,.03,3.73-1.59,4.72-.27,.17-.45,.38-.55,.6-1.7,.53-3.13,1.75-4.66,2.68-2.06,1.25-3.99,2.66-6.02,3.96-.36,.23-.41,.64-.26,.97,0,.06,0,.12,0,.18,3.25,13.66,10.32,27.07,15.9,39.92,5.87,13.53,11.82,27.03,17.91,40.46,11.71,25.82,23.6,51.75,36.84,76.84,.36,.68,1.1,.78,1.73,.55,.26,.06,.55,.05,.87-.06,19.82-7.19,40.08,3.44,50.33,20.79,5.14,8.69,8.95,19.82,7.79,30Z"/><path class="d" d="M152.24,190.9c-.55-.49-1.2-.27-1.54,.18-.11-.91-.93-1.79-2.08-1.46-27.65,7.87-56.93,19.99-79.32,38.47-.06-.2-.12-.4-.18-.61-.16-.53-.87-.3-.89,.18-.72,15.02,11.01,29.69,23.4,36.91,13.54,7.89,30.91,8.03,44.96,1.31,14.31-6.85,25.41-19.85,28.24-35.64,2.56-14.3-1.49-29.61-12.58-39.33Zm-2.89,1.82c-4.21,15.59-17.61,25.43-32.15,30.86-14.49,5.41-30.28,8.46-45.54,5.09,12.53-6.92,24.35-14.86,37.38-20.96,13.01-6.09,26.51-11.04,40.31-14.99Zm-15.27,72.14c-13.37,5.32-28.83,4.9-41.37-2.46-12.74-7.48-18.62-18.9-22.78-32.23,16.85,5.69,36.42,1.13,52.28-5.75,13.77-5.98,25.6-16.12,29.4-31.07,22.58,21.85,10.08,60.54-17.53,71.51Z"/><path class="d" d="M91.92,241.49c-.11-.1-.25-.19-.43-.22-2.16-.39-4.11,1.31-4.22,3.47-.11,2.1,1.68,3.6,3.68,3.71,2.08,.11,3.8-1.4,3.81-3.51,0-1.33-1.22-3.81-2.83-3.45Zm-.66,4.26c-1.96,.13-1.56-2.49,.1-2.65,.03,0,.05-.02,.08-.02,.32,.43,.76,.79,.79,1.42,.04,.63-.3,1.21-.97,1.26Z"/><path class="d" d="M106.32,246.65c-.21,.05-.4,.33-.37,.55,.2,1.21,1.21,1.93,1.13,3.3-.08,1.39-1.1,2.34-2.5,2.27-3.41-.16-2.97-4.91-.12-5.62,.61-.15,.37-1.04-.21-1.04-2.52,.02-4.56,1.81-4.73,4.36-.18,2.64,2.02,4.67,4.54,4.95,2.47,.28,4.77-1.3,5.23-3.79,.31-1.67-.58-5.54-2.98-4.98Z"/><path class="d" d="M108.32,236.2c-.68-.26-1.23,.38-.9,1.02,.41,.8,.55,2.54-.81,2.34-1.83-.26-.9-2.33-.08-3.15,.44-.44-.19-1.03-.67-.77-1.16,.64-2.27,1.99-2.1,3.4,.17,1.36,1.47,2.32,2.77,2.44,1.35,.13,2.54-.66,2.99-1.94,.44-1.24,.14-2.84-1.2-3.35Z"/><path class="d" d="M115.66,257.84c-.45-.13-.8,.2-.9,.59-.03-.02-.05-.05-.09-.07-1.61-.82-3.82-.1-4.59,1.55-.92,1.97,.3,4.04,2.23,4.74,1.94,.71,4.12-.06,4.98-2,.78-1.76,.43-4.23-1.63-4.81Zm-2.19,4.5c-2.13-.43-1.04-3.5,.84-2.96,.23,.07,.42-.03,.53-.19,.3,1.28,.58,3.54-1.37,3.15Z"/></g></g></g></svg>