<?xml version="1.0" encoding="UTF-8"?><svg xmlns="http://www.w3.org/2000/svg" viewBox="0 0 358.22 266.89"><defs><style>.d{fill:#2d2e83;}</style></defs><g id="a"/><g id="b"><g id="c"><g><path class="d" d="M354.65,57.62c-2.67-1.82-7.49-1.9-9.9,.54-.22,.01-.44,.11-.61,.32-1.45-.67-2.94-.22-4.53-.15-1.52,.06-3.04,.05-4.56-.01-.53-4.94-3.02-9.54-7.91-12.75-2.68-1.76-6.16-3.06-9.75-3.61,0,0,0-.01,0-.02-.19-1.61-.4-3.21-.66-4.81-.1-.65-.14-1.35-.28-1.99,1.12-.76,2.07-1.77,2.7-2.98,2.06-3.97,.29-9.37-3.54-11.56-3.93-2.25-9.38-.73-11.86,2.99-2.56,3.83-1.51,9.51,2.21,12.19,.05,.03,.1,.04,.14,.07-.31,1.03,.12,2.34,.33,3.36,.24,1.19,.52,2.39,.95,3.54-2.78,1.08-5.13,3.01-6.57,6.03-.14-.06-.29-.1-.45-.11-.17-.21-.42-.35-.74-.4-5.62-.8-11.27-1.68-16.94-2.22-.46-9.91-16.43-15.6-24.62-15.12-11.4,.67-19.64,11.7-19.36,22.66,.04,1.5,.22,2.96,.53,4.39-.62,0-1.3,.3-1.78,.58-.31,.18-.58,.4-.84,.63-4.06,2.15-7.74,5.33-11.7,7.7-4.11,2.47-8.43,4.56-12.59,6.94-2.59-1.72-5.49-2.99-8.57-3.69,.01-3.83,.08-7.68-.08-11.51,4.96-1.65,8.05-7.42,6.44-12.59-1.93-6.19-9.53-9.38-15.4-6.92-5.65,2.37-9.33,9.57-6.2,15.26,1.21,2.2,3.18,3.77,5.38,4.54-.61,3.5-.1,7.43,.52,11.02-8.68,1.61-16.47,8.05-18.33,16.94-2.3,10.99,4.56,22.77,16.04,23.48-.54,3.9-1.01,7.8-1.31,11.72-2.61,.32-5.17,1.29-7.49,3.06-10.28,1.37-14.86,14.46-14.03,24.19-3.16,.55-6.23,2.14-9.16,3.38-3.23,1.36-6.56,2.66-9.67,4.3-.15-.38-.29-.76-.45-1.13-4.44-10.36-12.57-13.39-23.15-11.43-1.61-6.04-4.15-12.25-6.33-17.73-.05-.12-.12-.22-.19-.31,.4-.27,.81-.53,1.19-.83,8.07-6.23,13.97-19.93,11.18-30.6,.99-.48,1.95-1.24,2.69-1.75,1.11-.75,2.81-1.59,3.68-2.78,1.5,.68,3.14,1.1,4.87,1.18,8.8,.38,16.02-7.03,15.4-15.8-.61-8.53-8.12-14.71-16.57-14.13-7.22,.49-15.76,7.98-11.68,15.62-.07,.87-.07,1.73,.04,2.57-1.11,.23-1.91,1.25-2.78,1.98-.76,.64-1.5,1.29-2.24,1.95-7.85-9.05-24.28-8.03-34.37-2.36-3.16-3.01-6.2-6.13-9-9.47,.07-.1,.14-.2,.19-.32,3.22-6.71,3.68-14.43,1.03-21.22,2.77-1.55,5.44-3.23,7.99-5.14,2.6-1.94,4.59-4.14,6.86-6.39,.07-.07,.1-.15,.15-.23,3.88,2.63,9.78,2.8,13.64,.56,6.4-3.73,8.34-12.46,3.88-18.39-4.74-6.31-14-6.68-20.08-1.96-3.96,3.08-4.46,7.69-3.06,11.92-.21,.01-.42,.06-.65,.2-5.03,3.14-9.57,7.34-14.29,11-4.41-4.35-11.52-8.57-17.19-6.87-1.09-3.24-2.39-6.41-3.91-9.48,6.58-3.08,6.9-12.44,3.59-18.25C56.94,.38,47.73-2.11,40.7,1.96c-6.77,3.92-8.95,13.25-4.73,19.84,2.21,3.46,5.8,5.4,9.53,5.73,1.21,3.82,2.58,7.6,4,11.35-11.11,5.36-15.78,18.92-11.49,30.28-.02,0-.03,0-.05,0-2.55,.72-4.81,2.7-7.04,4.09-2.14,1.34-4.24,2.73-6.33,4.13-3.8-2.99-9.02-4.18-13.83-2.63-7.82,2.51-12.64,11.81-10.04,19.65,2.58,7.79,11.96,12.49,19.75,9.92,7.43-2.45,11.97-10.9,10.29-18.42,4.61-1.66,9.78-4.16,13.24-7.86,7.09,6.58,17.94,8.82,26.69,3.23,.3-.19,.51-.45,.65-.74,1.39,1.6,2.85,3.15,4.39,4.6,1.64,1.54,4.04,4.29,6.54,4.95-6.12,8.83-6.87,20.65-.15,30.18,6.4,9.08,17.62,12.63,27.93,10.51,1.33,5.22,2.9,10.7,4.71,15.98-15.81,2.94-19.86,20.95-15.33,34.41-.44-.07-.92,.02-1.34,.36-4.32,3.5-8.59,7.05-12.77,10.71-7.46-9.21-22.09-10.51-32.09-4.51-3.65,2.19-6.38,5.36-8.17,9.01-.15-.1-.32-.18-.52-.23-3.51-.88-7.2-1.54-10.84-1.97-.56-3.99-2.95-8.14-5.53-10.12-5.88-4.52-14.59-3.75-19.31,2.07-4.42,5.45-3.07,13.6,2.37,17.84,5.19,4.04,12.82,3.04,17.32-1.43,.11,.24,.33,.44,.69,.51,2.42,.47,4.79,1.1,7.2,1.61,1.96,.41,4.02,1.19,5.97,.55,.09-.03,.17-.08,.25-.13-.33,4.22,.41,8.56,2.3,12.45,4.89,10.08,15.36,13.95,25.3,13.09,.47,2.25,1,4.49,1.5,6.74,.46,2.01,.72,4.25,1.76,6.05-1.89,1.64-3.36,3.76-4.1,6.11-2.21,7.01,2.62,15.06,9.76,16.7,7.44,1.71,14.95-4.15,16.91-11.16,1.99-7.15-2.52-14.59-9.82-15.24,0-.02,0-.05,0-.07-.92-4.21-2.89-8.39-5.21-12.08,9.25-4.54,15.25-13.83,10.6-26.09-.14-.38-.38-.66-.65-.86,2.35-1.69,4.68-3.41,6.96-5.19,1.97-1.53,4.86-3.13,6.33-5.32,3.06,4.21,7.16,7.53,12.55,8.37,6.53,1.03,14.72,.54,19.99-3.87-.81,2.58-.86,5.46-.06,8.16,2.24,7.56,10.38,11.42,17.67,8.55,7.02-2.77,10.04-11.17,7.3-18.03-2-5.02-7.43-8.82-12.91-9.12,2.32-4.61,3.6-9.64,3.77-14.71,.61-.25,.95-.9,1.4-1.41,.38-.44,.83-.79,1.3-1.1,2.13-.3,4.45-1.69,6.18-2.4,3.71-1.53,7.36-3.26,10.89-5.17,.24-.13,.42-.29,.56-.47,6.14,8.43,18.63,10.47,28.16,5.2,.48-.26,.93-.56,1.39-.86,.05,.07,.09,.15,.17,.21,2.64,2.22,5.3,4.41,8.12,6.41,2.12,1.51,4.33,3.28,6.72,4.47-2.56,5.51-2.33,12.44,1.16,17.64,1.84,2.75,4.4,4.83,7.28,6.22-.46,4.32-.53,8.73-.51,13.07-1.98,.66-3.76,1.98-4.99,3.9-3.06,4.78-1.39,11.19,3.38,14.16,4.51,2.81,10.57,1.38,13.85-2.65,3.68-4.51,2.85-11.25-1.13-15.26-.18-.19-.38-.31-.58-.4,.3-3.65,.44-7.29,.42-10.95,2.95-.28,5.84-1.24,8.37-2.96,3.79-2.58,6.72-6.52,8.3-10.88,.08,0,.16,.02,.25,0,5.6-.95,11.82-1.8,17.15-3.8,.19-.07,.35-.17,.48-.3,5.81,7.6,16.26,11.72,25.99,5.67,2.96,2.34,6.03,4.53,9.29,6.44-.19,1.26-.12,2.56,.23,3.83,1.43,5.07,7.13,8.12,12.19,7.08,5.45-1.12,8.93-6.72,8.28-12.13-.58-4.8-6.42-11.1-11.58-8.21-.88-1.67-3.45-2.77-4.83-3.65-1.3-.83-2.62-1.65-3.96-2.45,.22-.14,.41-.34,.53-.63,1.58-3.58,2.05-7.44,1.5-11.14,2.7-3.03,5.28-6.18,7.94-9.25,2.37-2.73,5.36-5.57,6.68-8.98,12.04,3.2,24.93,1.22,30.53-11.54,4.48-10.22-.45-22.62-10.25-27.67-1.04-.54-2.13-.96-3.23-1.3,.02-.13,.01-.27-.03-.43-2.92-11.56-4.65-23.55-7.81-35.01-.11-.4-.39-.66-.71-.8,1.02-1.71,1.84-3.51,2.42-5.34,1.75,.34,3.53,.57,5.29,.85,.79,.12,1.58,.29,2.36,.41,.5,1.64,1.49,3.11,2.95,4.07,3.74,2.46,9.28,1.34,11.86-2.27,2.74-3.83,2.08-9.85-1.91-12.57ZM28.81,197.88c-.23,.39-.43,.79-.63,1.2-.34,.02-.67,.15-.95,.43-3.11,3.02-7.12,4.97-11.51,3.45-4.88-1.69-7.53-7.97-5.18-12.56,2.47-4.82,8.51-6.68,13.35-4.33,2.44,1.19,4.23,2.98,5.27,5.49,.11,.27,.46,2.69,.56,4.89-.35,.46-.65,.96-.92,1.42Zm14.03,6.1h0c-1.63-1.3-3.64-1.32-5.66-1.62-1.76-.26-3.53-.48-5.3-.72,1.11-1.18,1.7-2.67,1.87-4.28,3.26,.94,6.63,1.71,9.92,2.24,.07,.01,.14,.01,.21,.01-.47,1.42-.84,2.88-1.05,4.37ZM136.1,68.92c1.96-2.2,5.16-3.16,8.02-3.13,5.95,.08,10.7,4.73,10.91,10.66,.21,5.87-4.52,10.73-10.39,10.87-5.75,.14-9.48-4.55-10.53-9.7,.1-.2,.17-.41,.17-.66,0-2.87-.25-5.7,1.83-8.05Zm-5.92,15.24c.63-.37,1.29-.66,1.85-1.06,.76,1.87,1.95,3.56,3.45,4.93-.92,.64-1.77,1.48-2.53,2.04-.5,.37-1.09,.74-1.64,1.14-.75-1.46-1.7-2.83-2.9-4.07-.27-.52-.56-1.01-.87-1.49,.89-.49,1.77-.98,2.64-1.49ZM97.88,22.25c4.06-3.95,11.41-4.19,15.26,.06,3.61,3.99,2.71,10.19-1.56,13.3-5.25,3.83-9.64,.4-13.6-3.09-.41-.36-.95-.45-1.42-.34-1.35-3.38-1.54-7.15,1.32-9.93Zm-3.46,10.96c.76,1.46,1.74,2.82,2.85,3.98-.02,.02-.05,.02-.07,.05-4.24,4.05-9.23,7.79-14.12,11.1-.64-1.27-1.38-2.5-2.26-3.67-.28-.37-.59-.75-.92-1.13,5.18-2.65,10.75-5.98,14.52-10.32Zm-54.99-13.43c-2.93-4.37-1.89-10.87,2.44-13.9,4.38-3.06,10.58-2.64,14.23,1.39,3.32,3.66,5.2,13.14-1.1,15.05-.01,0-.02,0-.03,.01-.39-.01-.77,.14-1.03,.41-.16,0-.33,.02-.49,.09-4.52,2.1-11.06,1.35-14.02-3.07Zm9.07,7.66c1.9-.28,3.75-1,5.41-2.16,.13,.23,.29,.44,.5,.6,1.86,5.45,3.55,10.95,5.13,16.5,.14,.48,.4,.82,.73,1.03-.22,.87-.62,1.63-1.61,2.01-1.23,.47-2.51-.07-3.31-1.01-.02-.12-.05-.25-.1-.39-2.13-5.57-4.29-11.14-6.72-16.58ZM19.56,101.09c-6.32,2.18-14.13-1.69-15.91-8.21-1.73-6.33,2.56-13.87,9.1-15.09,6.28-1.18,11.88,2.88,14.58,8.26,1,6.03-1.53,12.89-7.77,15.04Zm17.29-21.38c-2.18,1.58-4.51,2.92-6.93,4.1-.24-.23-.53-.37-.84-.41-.66-1.7-1.64-3.23-2.86-4.53,2.07-1,4.11-2.05,6.09-3.23,2.17-1.29,4.87-2.5,6.57-4.41,.78,1.57,1.74,3.04,2.83,4.38-1.61,1.36-3.13,2.85-4.85,4.1Zm31.61-6.19c-.38,.22-.65,.61-.66,1.1-.02,1.28,.49,2.24,1.18,3.16-11.02,4.55-23.36,1-27.23-11.2-3.1-9.78,1.79-18.64,8.66-25.25,.46,1.21,.93,2.41,1.4,3.62,.28,.73,.88,1.09,1.51,1.16,1.27,1.95,3.59,3.09,5.99,2.56,2.8-.61,5.17-3.95,4.28-6.8-.1-.32-.31-.57-.57-.76-.26-1.1-.57-2.18-.89-3.26,1.22,.38,2.48,.62,3.76,1.06,3.79,1.29,7.3,3.37,10.03,6.33,5.84,6.33,6.8,15.14,3.89,22.96-.49-.67-.98-1.35-1.45-2.04-.8-1.16-2.19-1.1-3.07-.46-4.23-.5-7.99,3.83-6.82,7.81Zm11.86,10.74c-1.36-1.38-2.71-2.78-4.01-4.2-1.6-1.75-3.23-4.6-5.36-5.99-.74-2.66,1.58-5.38,4.25-5.23,.02,0,.04,0,.06,0,3.89,5.53,8.59,10.38,14.34,13.97-2.1,1.45-3.97,3.12-5.56,4.97-1.16-.21-2.97-2.76-3.71-3.52Zm5.67,33.73c-7.81-10.76-3.96-25.16,7.07-31.98,8.44-5.22,22.52-6.57,30.36,.45-.12,.4-.05,.86,.32,1.35,7.7,10.16,6.03,24.42-3.45,33.06-9.85,8.98-26.33,8.12-34.31-2.87Zm26.04,12.31c2.32-.65,4.57-1.62,6.69-2.87,1.42,7.52,3.4,16.58,6.98,23.4-.02,.06-.03,.12-.05,.18-.28,.84-.77,1.46-1.51,1.94-1.4,.91-2.67,.74-4.1,.27-1.45-7.64-4.5-15.95-8.01-22.91Zm-27.34,113.36c7.17-.33,10.18,7.45,7.1,13.19-2.66,4.97-8.94,8.39-14.26,5.33-4.52-2.61-6.59-8.52-3.87-13.13,2.1-3.55,5.92-5.18,9.81-5.84,.28,.29,.68,.47,1.22,.45Zm-1.92-3.05c-2.34-.25-4.69,.31-6.77,1.45-.21-1.73-.91-3.47-1.39-5.1-.63-2.09-1.24-4.18-1.9-6.26,2.35-.39,4.65-1.05,6.8-1.96,1.2,3.94,2.16,7.91,3.26,11.88Zm-34.33-23.78c-4.56-8.8-2.1-20.71,6.61-25.92,8.72-5.22,20.89-3.69,28.37,2.99-.94,.84-1.89,1.68-2.82,2.54-.71,.65-.21,1.75,.53,2.01,.06,2.98,3.02,5.36,6.13,5.09,.04,0,.07,0,.11-.01,.11-.01,.22-.01,.33-.03,.24-.04,.45-.15,.63-.3,8.22,23.8-29.44,33.81-39.89,13.63Zm47.36-23.7c-2.74,2.31-5.44,4.7-8.05,7.16-.3-.08-.62-.12-.95-.08-1.56,.21-3.14-1.24-3.65-2.72,5.89-4.37,11.59-8.97,17.22-13.66,.02-.02,.03-.04,.05-.05,.63,1.43,1.35,2.85,2.16,4.21-2.58,.89-4.75,3.44-6.77,5.14Zm35.33-9.81c-.21-1.04,.02-2.18,.83-2.94,1.05-.99,2.11-.56,3.34-.57,1.1,1.04,2.17,2.11,3.11,3.29,.85,1.07,1.75,3.01,3.03,3.74,.21,.25,.42,.51,.63,.76,.14,.18,.28,.37,.41,.57-1.68,.83-3.04,2.07-4.07,3.57-2.15-2.98-4.62-5.94-7.28-8.43Zm26.63,10.18c2.96,4.87,1.55,11.87-3.59,14.64-5.48,2.95-12.24,.09-14.02-5.84-1.49-4.97,.96-10.44,5.27-13.17,.33-.21,.46-.53,.45-.85,4.66-.1,9.18,.77,11.89,5.22Zm-12.92-8.6c-.04,.07-.06,.14-.09,.21-.29,.09-.59,.17-.87,.28-.08,.03-.14,.09-.21,.13-.03-.02-.05-.04-.08-.05-.19-1.62-1.87-3.18-2.94-4.23-1.25-1.23-2.6-2.34-4.06-3.3-.06-.13-.14-.25-.25-.36-1.71-1.7-4.95-.81-6.45,.74-1.66,1.7-1.79,4.39-.48,6.33,.19,.28,.48,.41,.78,.44,1.44,2.62,3.18,5.19,5.03,7.58-4.95,3.07-10.97,3.51-16.74,2.87-7.21-.8-11.72-6.47-14.61-12.72-5.89-12.69-2.55-28.73,11.9-33.12,.68,1.87,1.39,3.71,2.14,5.48,.44,1.06,1.63,1.07,2.15,.39,1.63,1,3.85,1.17,5.55,.36,2.05-.98,4.74-4.56,3.09-6.8-.25-.34-.56-.54-.88-.62-.12-.63-.27-1.27-.41-1.9,4.35,.1,8.71-.02,12.57,2.23,4.35,2.52,6.61,7.05,8.04,11.75,2.5,8.24,1.11,16.97-3.16,24.33Zm25.81-27.98c-3.66,1.86-7.34,3.66-11.09,5.33-2.29,1.02-5.95,1.7-7.01,4.12,0,0-.02,.01-.03,.02-.18-2.52-.64-5.03-1.41-7.48,3.56-.93,7.06-2.29,10.51-3.55,2.64-.96,5.61-1.76,8.07-3.22,.06,.26,.12,.53,.18,.78,.36,1.37,.84,2.63,1.43,3.81-.21,.02-.43,.08-.66,.19ZM313.83,37.29c.37,1.48,.77,2.95,1.2,4.41-1.86-.1-3.71,0-5.45,.38-.16-1.18-.37-2.36-.47-3.55-.07-.84,0-1.74-.22-2.5,1.5,.64,3.14,.72,4.7,.36,.08,.29,.17,.59,.25,.91Zm-6.97-13.07c2.62-2.53,7.24-2.22,9.11,1.02,1.65,2.84,.81,6.39-2.21,7.87-1.65,.81-2.92,.4-4.61,.53-.41,.03-1.13,.06-1.33,.57-.05-.18-.13-.35-.28-.5-2.44-2.6-3.6-6.68-.69-9.49Zm-8.04,37.01s.04-.04,.06-.06c.39-.47,.5-1.22,.12-1.71,.4-2.87,1.27-5.73,2.43-8.38,.67,.37,1.57,.3,2.15-.57,4.84-7.25,15.22-6.06,21.69-1.77,8.57,5.67,7.38,16.54,1.77,23.94-5.52,7.3-15.23,9.89-22.59,3.46-4.58-4-6.03-9.42-5.64-14.92Zm-16.54-12.3c5.23,.89,10.52,1.49,15.77,2.11-1.38,2.51-2.31,5.22-2.77,7.98h-.04c-.09-.21-.24-.39-.47-.49-2.58-1.25-5.55-1.3-8.38-1.64-1.18-.14-2.35-.26-3.53-.38-.66-.6-1.68-.74-2.35-.2-1.58-.12-3.16-.22-4.75-.26-.42-.01-.71,.21-.88,.51-.8-1.65-.9-3.62-.41-5.38,.39-1.43,1.35-2.3,2.13-3.36,1.32,.29,2.65,.56,3.99,.81,.32,.63,1.25,.82,1.69,.3Zm-26.34-13.86c8.53-1.97,18.95,3.17,23.29,10.68-.65-.04-1.29-.07-1.94-.1-.17-.37-.51-.65-1.01-.64-2.73,.07-4.38,3.25-4.88,5.62-.59,2.77,.21,5.37,2.12,7.42,.48,.51,1.16,.29,1.47-.18,.12,.13,.27,.25,.49,.3,1.31,.31,2.63,.58,3.96,.84-2.46,7.64-8.67,13.66-17.2,13.73-9.48,.08-17.57-6.67-19.34-15.96-1.74-9.11,3.59-19.5,13.04-21.69Zm-17.12,25.79c.18-.21,.26-.43,.3-.66,.24-.04,.47-.08,.68-.17,.5,1.58,1.14,3.1,1.94,4.53-7.3,5.6-14.66,11.05-22.13,16.4-1.51-2.18-3.33-4.14-5.41-5.79,8.55-2.47,19.04-7.67,24.62-14.31Zm-46.91-7.71c-2.59-3.76-.06-8.75,3.61-10.69,3.76-1.98,8.97-.29,10.94,3.47,2.13,4.06-.5,8.24-4.36,9.64-.08,0-.16,.03-.24,.05-.32,.01-.63,.11-.88,.29-.13,.04-.24,.09-.35,.16-3.08,.93-6.88-.25-8.72-2.91Zm4.56,6.29c1.37,.08,2.75-.14,4.04-.71,.01,.01,.03,.02,.04,.03,.3,3.67,.8,7.34,1.26,11-.11-.02-.21-.04-.32-.05-1.64-.22-3.29-.22-4.94-.07-.14-3.41,.13-6.83-.09-10.2Zm-16.13,27.74c2.27-9.37,12.64-15.07,21.86-13.32,8.34,1.58,15.41,8.62,17.28,16.85,1.25,5.49,.23,11.69-3.87,15.77-2.95,2.93-6.44,3.56-10.19,4.23,.45-2.62,.77-5.25,.97-7.87,.08-1.12-1.02-1.72-1.98-1.63-2.33-1.95-5.85-2.08-8.62-1-.88-.53-2.13-.37-2.32,.9-.35,2.36-.7,4.73-1.04,7.1-8.28-3.83-14.44-11.32-12.09-21.03Zm22.53,16.75c-.94,6.33-1.96,12.59-3.23,18.88-.04,.18-.03,.35,0,.51-2.12-.83-4.33-1.32-6.55-1.36,1.46-6.44,2.45-12.97,3.47-19.49,2.39-.65,4.32,.11,6.31,1.46Zm-2.85,57.04c-9.59,5.84-23.48,2.67-26.55-9.01-2.54-9.7,1.85-17.61,8.81-23.46,.5,.5,1.24,.71,1.92,.21,8.87-6.54,20.43-1.45,24.45,8.12,3.72,8.86-.61,19.26-8.63,24.14Zm12.78,7.14c-2.9-1.85-5.84-3.64-8.73-5.51,2.1-1.62,3.93-3.59,5.4-5.77,2.29,2.16,4.66,4.22,7.18,6.12,2.15,1.62,4.58,3.67,7.15,4.8-1.88,1.1-3.44,2.58-4.68,4.3-1.97-1.49-4.29-2.65-6.32-3.94Zm22.55,56.44c-1.99,2.93-6.26,4.3-9.44,2.56-3.17-1.74-4.53-5.71-2.94-8.94,1.83-3.72,6.65-4.56,10.27-3.31,.43,.15,.76,0,.95-.27,.06,0,.12,.01,.18,0,2.25,2.8,3.13,6.77,.98,9.95Zm-7.4-25.02c2.06,.72,4.24,1.11,6.42,1.13-.62,3.93-1.06,7.88-1.3,11.86-1.47-.85-3.08-1.25-4.68-1.24,0-3.9-.06-7.85-.43-11.74Zm9.98-2.88c-6.84,1.7-14.71-2.14-17.27-8.71-2.69-6.9,.5-13.93,5.5-18.79,.45,.51,1.21,.69,1.81,.05,6.4-6.89,19.93-1.57,22.18,6.71,2.3,8.45-3.78,18.64-12.22,20.74Zm12.91-27.67c-3.87-4.99-20.48-10.66-24.36-3.16-2.07-2.19-5.22-3.67-7.71-5.35-2.72-1.83-5.44-3.68-8.13-5.56,3.45-6.24,4.21-13.86,.97-20.56-2.08-4.31-5.71-7.91-9.94-10.1,.23-.15,.44-.38,.55-.72,1.02-3.08,1.87-6.27,2.55-9.49,10.53,3.1,19.45-9.51,19.39-18.98-.03-4.43-1.29-8.65-3.44-12.34,8.12-4.21,15.86-9.41,22.88-15.29,3.55,4.65,8.79,7.97,14.94,8.87,11.18,1.65,22.1-5.66,24.64-16.62,.93,.15,1.86,.29,2.79,.43,2.39,.34,4.83,.91,7.23,.75,.56,.33,1.16,.59,1.79,.78h0c-.42,7.08,2.28,14.15,8.56,18.61,5.47,3.87,11.63,4.17,17.06,1.99,.8,9.12,2.94,18.34,6.37,26.82-4.88,1.65-9.21,4.9-11.83,9.41-4.2,7.23-5.43,18.12-.86,25.14-2.01,1.85-3.48,4.66-5.08,6.83-1.7,2.3-3.5,4.53-5.3,6.76-.87-1.02-1.85-1.98-2.94-2.83-7.96-6.18-19.66-4.97-27.3,1.12-5.69,4.53-7.7,10.31-7.24,15.89-4.09,1.64-8.33,2.94-12.68,3.61-.55-2.12-1.49-4.16-2.92-6.01Zm2.99,15.07c.52-2.3,.64-4.66,.34-6.96,4.42-.2,8.64-.98,12.8-2.55,.49,1.93,1.27,3.8,2.27,5.55-5.14,.69-10.44,2.4-15.41,3.97Zm21.13-1.68c-7.48-7.64-6.24-19.66,2.85-25.37,14.09-8.86,32.64,3.92,26.07,20.25-.05,.13-.08,.25-.1,.37-.74-.42-1.49-.82-2.24-1.22-.03-.03-.05-.07-.08-.1-1.73-1.51-4.75-.48-6.46,.66-1.96,1.31-3.29,3.31-3.53,5.67-.03,.33,.12,.63,.34,.88-.05,.28,.01,.58,.28,.81,.79,.69,1.6,1.36,2.41,2.03-6.81,2.02-14.25,1.43-19.55-3.98Zm39.61,6.52c.48-.22,.62-.6,.56-.98,.19,.12,.41,.21,.66,.24,2.01,.26,3.7,.17,5.36,1.65,1.45,1.28,2.21,3.13,2.2,5.06-.02,3.59-2.66,7.14-6.4,7.3-8.33,.36-9.09-10.19-2.38-13.27Zm-5.45-3.83c.77,.55,2.15,1.17,2.98,1.9,.02,.1,.07,.19,.11,.29-2.13,.74-3.83,2.29-4.89,4.22-2.78-1.89-5.63-3.67-8.5-5.41-.11-.61-.57-1.11-1.31-.8h0c-1.15-.69-2.3-1.38-3.44-2.07,.03-.07,.07-.14,.09-.21,.47-1.43,1.28-2.65,2.58-3.47,.59-.37,1.23-.64,1.92-.75,.69-.11,1.36,.03,2.02-.17,1.66,1.36,3.38,2.66,5.08,3.97,1.11,.85,2.21,1.7,3.35,2.5Zm5.28-28.5c-2.05,2.98-4.18,5.91-6.21,8.9-.58-2.3-1.55-4.51-2.91-6.5,2.18-2.15,4.23-4.43,6.19-6.79,1.57-1.9,3.53-3.98,4.69-6.25,1.14,1.14,2.5,2.11,4.11,2.86-2.36,2.16-4.11,5.23-5.87,7.79Zm29.4-42.08c7.82,5.35,10.32,16.33,5.15,24.31-6.26,9.68-16.37,8.83-26.26,6.53-.43-.1-.81-.05-1.13,.08-1.3-.69-2.5-1.46-3.59-2.44-10.26-14.96,7.84-40.77,25.82-28.48Zm-5.78-6.29c-2.93-.53-5.97-.42-8.88,.26-2.32-9.15-4.28-18.2-5.82-27.51,2.5-1.45,4.74-3.47,6.61-5.88,.84,11.15,4.4,22.65,8.09,33.14Zm3.37-42.8c-.53-.03-1.07-.06-1.61-.1-1.68-.13-3.38-.31-5.07-.39,.31-1.44,.47-2.88,.48-4.31,1.46,.35,2.94,.59,4.45,.7,.97,.07,1.89,.17,2.77,.07-.59,1.26-.96,2.58-1.02,4.03Zm12.18,3.16c-1.65,1.88-5.03,2.48-7.11,.98-.55-.4-.94-.89-1.21-1.46,.49-.56,.47-1.59-.27-1.94-.08-.04-.16-.07-.25-.1-.12-1.47,.14-3.09,.44-4.55,0,0,.01,0,.02,0,2.36-1.56,5.26-3.12,7.9-.88,2.24,1.9,2.4,5.78,.48,7.96Z"/><path class="d" d="M306.22,159.11c-.27,0-.27,.42,0,.42s.27-.42,0-.42Z"/></g></g></g></svg>