<?xml version="1.0" encoding="UTF-8"?><svg xmlns="http://www.w3.org/2000/svg" viewBox="0 0 224.56 203.27"><defs><style>.d{fill:#ffb027;}</style></defs><g id="a"/><g id="b"><g id="c"><g><path class="d" d="M67.21,179.27c1.79,5.5-1.13,7.79-5.06,9.79-8.01,4.07-15.88,8.43-23.84,12.6-5.35,2.8-7.49,2.12-10.38-3.33-8.81-16.62-17.6-33.25-26.34-49.9-2.79-5.32-2.06-7.53,3.34-10.42,8.21-4.4,16.4-8.86,24.74-13.02,1.88-.94,5.07-1.76,6.37-.83,3.01,2.14,5.11,1.11,7.58-.37,1.57-.94,3.27-1.67,4.79-2.68,12.75-8.4,26.54-10.23,41.57-8.23,16.15,2.15,32.47,3.04,48.74,4.25,9.25,.69,13.64,3.82,16.87,13.3,2.19-1.13,4.35-2.2,6.47-3.34,12.88-6.97,25.74-13.99,38.64-20.94,8.6-4.63,17.39-2.58,21.73,4.98,4.49,7.81,1.71,16.55-6.82,21.65-19.86,11.87-39.79,23.64-59.53,35.69-12.39,7.56-25.25,12.09-40.16,10.97-13.59-1.01-27.29-.65-40.94-.81-2.3-.03-4.61,.37-7.78,.64Zm-4.4-7.46c4.61-.46,8.56-1.22,12.51-1.19,14.49,.1,29.01,.07,43.47,.84,10.65,.57,20.13-2.27,29.02-7.53,21.35-12.65,42.61-25.47,63.88-38.26,4.67-2.81,5.95-6.57,3.77-10.36-2.18-3.81-6.1-4.64-10.82-2.09-18.46,9.97-36.82,20.16-55.41,29.89-3.96,2.07-8.72,3.46-13.17,3.63-17.98,.68-35.98,.77-53.97,1.07-1.16,.02-2.62,.41-3.42-.14-1.35-.93-3.12-2.44-3.17-3.76-.05-1.27,1.63-3.01,2.98-3.81,1.15-.68,2.92-.35,4.41-.38,18.16-.34,36.32-.63,54.47-1.03,5.82-.13,9.4-3.07,9.5-7.42,.09-3.74-3.13-5.66-9.32-6.14-16.27-1.27-32.71-1.65-48.74-4.37-17.77-3.01-31.82,3.78-46,13.17,6.68,12.66,13.35,25.29,20,37.9Z"/><path class="d" d="M134.51,0c29.73-.03,53.52,23.26,53.54,52.41,.02,29.02-24.02,52.63-53.55,52.58-29.47-.05-53.35-23.73-53.26-52.83C81.34,23.21,105.01,.03,134.51,0Zm.16,8.73c-24.78,.08-44.56,19.53-44.53,43.78,.03,24.16,20.11,43.74,44.73,43.61,24.5-.13,44.61-20.08,44.4-44.06-.21-23.86-20.34-43.42-44.6-43.34Z"/><path class="d" d="M142.9,39.15c-3.19,11.68-6,21.57-8.53,31.53-.51,2.03,.06,4.33,.13,6.51,1.84-.37,3.69-.71,5.53-1.11,1.23-.27,2.45-.61,3.67-.92,.34,.5,.69,.99,1.03,1.49-3.03,2.44-5.71,5.78-9.16,7.13-6.67,2.62-12.77-2.82-11.48-10.24,1.27-7.34,3.53-14.51,5.36-21.75,.8-3.15,2.71-6.75-3.02-7.3-.15-.01-.25-3.16-.12-3.18,5.12-.8,10.28-1.4,16.6-2.17Z"/><path class="d" d="M138.57,34.5c-3.88,.11-7.08-2.85-7.26-6.72-.17-3.77,2.88-7.16,6.64-7.39,4.03-.24,7.4,2.95,7.42,7.03,.02,4.06-2.78,6.97-6.8,7.08Z"/></g></g></g></svg>