<?xml version="1.0" encoding="UTF-8"?><svg xmlns="http://www.w3.org/2000/svg" viewBox="0 0 154.23 123.12"><defs><style>.d{fill:#fff;}.e{fill:#ffb027;}</style></defs><g id="a"/><g id="b"><g id="c"><g><path class="d" d="M43.12,120.46c0,1.47-1.19,2.66-2.66,2.66h-10.86c-10.82,0-16.23-5.61-16.23-16.84v-31.41c0-.71-.29-1.4-.8-1.9L.8,61.42c-.51-.5-.8-1.18-.8-1.9v-.28c0-.72,.29-1.4,.8-1.9l11.77-11.47c.51-.5,.8-1.19,.8-1.9V16.84c0-11.23,5.42-16.84,16.24-16.84h10.86c1.47,0,2.66,1.19,2.66,2.66V11.28c0,1.53-1.29,2.75-2.82,2.65h-.1c-1.4-.1-2.49-.14-3.26-.14-5.25,0-7.88,1.9-7.88,5.7v24.04c0,2.58-.25,4.46-.75,5.64s-1.68,2.56-3.53,4.14l-4.95,4.09c-1.28,1.06-1.29,3.01-.02,4.08l4.97,4.19c1.86,1.58,3.06,3.01,3.6,4.28,.45,1.09,.68,2.85,.68,5.3v28.11c0,3.94,2.69,5.91,8.08,5.91,.72,0,1.77-.03,3.12-.1h.07c1.52-.08,2.78,1.13,2.78,2.65v8.65h0Z"/><path class="d" d="M153.46,61.42l-11.78,11.54c-.51,.5-.8,1.18-.8,1.9v31.41c0,11.23-5.43,16.84-16.3,16.84h-10.79c-1.47,0-2.66-1.19-2.66-2.66v-8.68c0-1.5,1.25-2.69,2.74-2.62h.04c1.36,.07,2.4,.1,3.12,.1,5.52,0,8.28-1.97,8.28-5.91v-28.11c0-2.54,.23-4.38,.68-5.54,.45-1.15,1.61-2.5,3.46-4.04l4.97-4.19c1.27-1.07,1.26-3.02-.02-4.08l-4.95-4.09c-1.86-1.54-3.03-2.96-3.53-4.28-.41-1.04-.61-2.87-.61-5.5V19.49c0-3.76-2.69-5.64-8.08-5.64-.77,0-1.86,.03-3.26,.1h-.08c-1.51,.08-2.78-1.13-2.78-2.65V2.66c0-1.47,1.19-2.66,2.66-2.66h10.79c10.87,0,16.3,5.61,16.3,16.84v27.13c0,.72,.29,1.4,.8,1.9l11.77,11.47c.51,.5,.8,1.19,.8,1.9v.28c0,.71-.29,1.4-.8,1.9h.03Z"/></g><path class="e" d="M77.18,91.59c-1.9,0-3.48-.63-4.74-1.88-1.25-1.25-1.88-2.83-1.88-4.74,0-3.38,.86-7.08,2.6-11.1,1.73-4.02,4.41-7.59,8.05-10.71,2.42-2.08,4.65-4.13,6.69-6.17,2.03-2.03,3.68-4.37,4.93-7.01,1.25-2.64,1.88-5.86,1.88-9.67,0-2.77-.65-5.36-1.95-7.79-1.3-2.42-3.14-4.39-5.52-5.91-2.38-1.51-5.3-2.27-8.76-2.27-4.24,0-7.75,.78-10.52,2.34-2.77,1.56-4.83,3.72-6.17,6.49-1.34,2.77-2.01,6.02-2.01,9.74,0,1.9-.61,3.48-1.82,4.74-1.21,1.26-2.81,1.88-4.8,1.88s-3.48-.63-4.74-1.88c-1.26-1.25-1.88-2.83-1.88-4.74,0-6.06,1.32-11.38,3.96-15.97,2.64-4.59,6.36-8.2,11.16-10.84,4.8-2.64,10.41-3.96,16.81-3.96,5.62,0,10.62,1.19,14.99,3.57,4.37,2.38,7.83,5.67,10.38,9.87,2.55,4.2,3.83,9.11,3.83,14.73,0,4.85-.78,9.04-2.34,12.59-1.56,3.55-3.68,6.73-6.36,9.54-2.68,2.81-5.76,5.6-9.22,8.37-2.25,1.82-3.81,4.18-4.67,7.07-.87,2.9-1.3,5.26-1.3,7.08s-.61,3.48-1.82,4.74c-1.21,1.26-2.81,1.88-4.8,1.88Zm0,24.02c-2.42,0-4.52-.89-6.3-2.66-1.77-1.77-2.66-3.87-2.66-6.3s.89-4.65,2.66-6.43c1.77-1.77,3.87-2.66,6.3-2.66s4.65,.89,6.43,2.66c1.77,1.77,2.66,3.92,2.66,6.43s-.89,4.52-2.66,6.3c-1.78,1.77-3.92,2.66-6.43,2.66Z"/></g></g></svg>