<?xml version="1.0" encoding="UTF-8"?><svg xmlns="http://www.w3.org/2000/svg" viewBox="0 0 33.58 38.2"><defs><style>.d{fill:#fff;}</style></defs><g id="a"/><g id="b"><g id="c"><g><path class="d" d="M12.57,18.91c2.31,1.48,5.15,1.64,7.79,.43,.56-.26,.81-.92,.55-1.48-.26-.56-.92-.81-1.48-.55-1.93,.89-3.99,.79-5.65-.28-1.62-1.04-2.59-2.8-2.59-4.72,0-3.09,2.51-5.6,5.6-5.6s5.6,2.51,5.6,5.6c0,.62-.5,1.12-1.12,1.12-.56,0-1.09-.43-1.12-1.1v-.02c0-1.85-1.51-3.36-3.36-3.36s-3.36,1.51-3.36,3.36,1.51,3.36,3.36,3.36c.86,0,1.64-.32,2.24-.86,.59,.53,1.38,.86,2.24,.86,1.85,0,3.36-1.51,3.36-3.36,0-4.32-3.51-7.83-7.84-7.83s-7.83,3.51-7.83,7.83c0,2.68,1.35,5.15,3.62,6.6Zm4.22-5.48c-.62,0-1.12-.5-1.12-1.12s.5-1.12,1.12-1.12c.57,0,1.05,.43,1.11,.99-.02,.1-.02,.21,0,.31-.09,.53-.55,.94-1.1,.94Z"/><path class="d" d="M33.58,14.7c0-.29-.12-.58-.33-.79l-4.15-4.15V1.12c0-.62-.5-1.12-1.12-1.12H5.6c-.62,0-1.12,.5-1.12,1.12V9.76L.33,13.91h-.01C.11,14.14,0,14.42,0,14.7h0v20.15c0,1.85,1.51,3.36,3.36,3.36H30.22c1.85,0,3.36-1.51,3.36-3.36V14.7h0Zm-2.7,0l-1.77,1.77v-3.55l1.77,1.77ZM26.86,2.24v7.98h0v8.49l-6.06,6.06H12.78l-6.06-6.06V10.22h0V2.24H26.86ZM4.48,16.47l-1.77-1.77,1.77-1.77v3.55Zm-2.24,17.91V17.4l8.49,8.49L2.24,34.38Zm1.58,1.58l8.95-8.95h8.03l8.95,8.95H3.82Zm27.52-1.58l-8.49-8.49,8.49-8.49v16.98Z"/></g></g></g></svg>