<?xml version="1.0" encoding="UTF-8"?><svg xmlns="http://www.w3.org/2000/svg" viewBox="0 0 38.78 38.78"><defs><style>.d{fill:#fff;}</style></defs><g id="a"/><g id="b"><g id="c"><path class="d" d="M37.79,28.61l-4.82-4.82c-1.33-1.33-3.49-1.33-4.82,0l-2.19,2.19c-1.01,1.01-2.65,1.01-3.65,0l-9.5-9.51c-1.01-1.01-1.01-2.64,0-3.65,.35-.35,1.37-1.37,2.19-2.19,1.32-1.32,1.34-3.48,0-4.82L10.17,1c-1.33-1.33-3.49-1.33-4.82,0-.99,.98-1.31,1.3-1.76,1.74-4.79,4.79-4.79,12.59,0,17.39l15.05,15.06c4.8,4.8,12.58,4.81,17.39,0l1.75-1.75c1.33-1.33,1.33-3.49,0-4.82Zm-6.43-3.21l4.82,4.82c.44,.44,.44,1.16,0,1.61l-.8,.8-6.43-6.43,.8-.8c.44-.44,1.16-.44,1.61,0ZM8.56,2.61l4.82,4.81c.44,.44,.44,1.16,0,1.61l-.8,.8L6.16,3.4l.8-.79c.44-.44,1.16-.44,1.61,0Zm11.69,30.97L5.2,18.51c-3.71-3.71-3.91-9.53-.63-13.48l6.41,6.41c-1.68,1.91-1.61,4.82,.21,6.64l9.5,9.51h0c1.82,1.82,4.73,1.9,6.64,.21l6.41,6.41c-3.94,3.28-9.75,3.11-13.48-.63Z"/></g></g></svg>