<?xml version="1.0" encoding="UTF-8"?><svg xmlns="http://www.w3.org/2000/svg" viewBox="0 0 127.61 125.09"><defs><style>.d{fill:#ffb027;}</style></defs><g id="a"/><g id="b"><g id="c"><g><g><path class="d" d="M58.8,41.26c0,.22-.18,.4-.4,.4h-1.64c-1.63,0-2.44-.84-2.44-2.54v-4.73c0-.11-.04-.21-.12-.29l-1.77-1.74c-.08-.08-.12-.18-.12-.29v-.04c0-.11,.04-.21,.12-.29l1.77-1.73c.08-.08,.12-.18,.12-.29v-4.09c0-1.69,.82-2.54,2.45-2.54h1.64c.22,0,.4,.18,.4,.4v1.3c0,.23-.19,.41-.42,.4h-.02c-.21-.02-.37-.02-.49-.02-.79,0-1.19,.29-1.19,.86v3.62c0,.39-.04,.67-.11,.85s-.25,.39-.53,.62l-.75,.62c-.19,.16-.19,.45,0,.61l.75,.63c.28,.24,.46,.45,.54,.64,.07,.16,.1,.43,.1,.8v4.23c0,.59,.41,.89,1.22,.89,.11,0,.27,0,.47-.02h.01c.23-.01,.42,.17,.42,.4v1.3h0Z"/><path class="d" d="M70.96,32.37l-1.77,1.74c-.08,.08-.12,.18-.12,.29v4.73c0,1.69-.82,2.54-2.45,2.54h-1.62c-.22,0-.4-.18-.4-.4v-1.31c0-.23,.19-.41,.41-.39h0c.2,.01,.36,.02,.47,.02,.83,0,1.25-.3,1.25-.89v-4.23c0-.38,.03-.66,.1-.83,.07-.17,.24-.38,.52-.61l.75-.63c.19-.16,.19-.45,0-.61l-.75-.62c-.28-.23-.46-.45-.53-.64-.06-.16-.09-.43-.09-.83v-3.62c0-.57-.41-.85-1.22-.85-.12,0-.28,0-.49,.02h-.01c-.23,.01-.42-.17-.42-.4v-1.3c0-.22,.18-.4,.4-.4h1.62c1.64,0,2.45,.84,2.45,2.54v4.09c0,.11,.04,.21,.12,.29l1.77,1.73c.08,.08,.12,.18,.12,.29v.04c0,.11-.04,.21-.12,.29h0Z"/></g><path class="d" d="M65.48,30c-.79-.08-1.45-.18-2.32,0-.3,.08-.56,.24-1.08,.56-.74,.46-.65,.7-1.92,.78-1.23,.07-1.31-.63-2.11-.92-.2-.07-.41,.07-.41,.29v7.64c0,.17,.14,.31,.31,.31h7.51c.17,0,.31-.14,.31-.31v-8.04c0-.16-.12-.29-.28-.3Zm-6.1,6.88c-.42,0-.76-.34-.76-.76s.34-.76,.76-.76,.76,.34,.76,.76-.34,.76-.76,.76Zm2.82-2.19c-.55,0-.99-.44-.99-.99s.44-.99,.99-.99,.99,.44,.99,.99-.44,.99-.99,.99Z"/><circle class="d" cx="63.42" cy="26.78" r=".76"/><circle class="d" cx="60.47" cy="29.19" r=".99"/></g><path class="d" d="M69.73,80.13c-3.42,0-6.71-.01-9.99,.02-.28,0-.64,.2-.83,.42-2.15,2.49-4.27,5.01-6.39,7.51,1.47,1.62,1.52,2.02,.47,3.85-2.13,3.73-4.18,7.5-6.42,11.16-1.44,2.34-1.55,4.99-2.1,7.52-.94,4.27-1.73,8.58-2.59,12.87-.06,.32-.17,.63-.28,1.05l-3.86-.74c.44-2.26,.87-4.45,1.3-6.64,.74-3.72,1.46-7.44,2.24-11.15,.13-.63,.05-.98-.51-1.33-8.5-5.29-16.98-10.59-25.47-15.89-.13-.08-.3-.13-.52-.22-3.82,5.55-7.62,11.07-11.5,16.71l-3.27-2.22c.26-.41,.47-.76,.7-1.1,6.92-10.07,13.84-20.15,20.78-30.2,.49-.71,1.24-1.26,1.86-1.88l.3,.18c0-.45,0-.89,0-1.34,0-6.76,.01-13.52,0-20.28,0-3.07,.47-6.06,1.44-8.97,2.56-7.67,5.1-15.34,7.65-23,1.16-3.49,3.16-4.74,6.94-4.31,0-1.34-.01-2.67,0-4C39.73,3.47,43.16,.02,47.85,.01,57.08-.01,66.3,0,75.53,0c2,0,3.76,.64,5.35,1.9,.17-.11,.35-.21,.51-.33,2.77-2.14,6.07-2.07,8.43,.17,2.29,2.18,2.64,5.72,.69,8.46-1.38,1.93-2.93,3.74-4.41,5.61-.52,.65-1.12,1.26-1.55,1.97-.44,.73-.72,1.55-1.07,2.33l.34,.3c.63-.1,1.27-.21,1.9-.29,4.55-.59,8.26,2.46,7.98,6.7-.08,1.24-.64,2.45-.99,3.73,4.8,2.95,3.64,8.97-1.21,10.64,1.31,1.17,2.18,2.56,2.23,4.32,.06,2.38-.95,4.22-3.07,5.32-2.21,1.15-4.49,2.16-6.87,3.3v1.96c2.78,.18,4.4,1.9,5.61,4.19,.63,1.18,1.33,2.32,2.07,3.42,.19,.29,.71,.57,1.03,.53,3.55-.45,6.53,.68,8.86,3.31,.94,1.06,1.96,1.71,3.27,2.1,3.25,.97,6.38,2.18,9.01,4.45,4.32,3.73,6.32,8.52,6.91,14.11,.93,8.83,2,17.65,3.1,26.46,.13,1.07,.71,2.11,1.19,3.12,.87,1.84,1.81,3.64,2.75,5.53l-3.58,1.79c-.53-1.05-.94-2.09-1.53-3.02-2.27-3.59-3.03-7.56-3.45-11.72-.8-7.96-1.73-15.92-2.8-23.85-.68-5.09-3.52-8.81-8.06-11.24-.61-.33-1.03-.31-1.55,.16-.74,.67-1.55,1.26-2.43,1.96-1.82-2.26-3.59-4.46-5.34-6.67-1.16-1.46-2.63-2.34-4.73-2.52l5.32,8.9-3.38,2.05c-.25-.39-.51-.75-.73-1.13-3.22-5.36-6.44-10.72-9.65-16.09-.19-.32-.32-.78-.6-.93-.64-.35-1.47-.89-2.03-.72-.56,.17-1.28,1.12-1.25,1.7,.05,1.26,.36,2.56,.85,3.73,1.63,3.88,3.37,7.71,5.1,11.55,1.34,2.97,2.02,6.07,1.99,9.34-.03,3.05-.02,6.09,0,9.14,0,.94-.23,1.73-1.12,2.2-.91,.48-1.68,.15-2.43-.42-2.33-1.76-4.64-3.55-7.02-5.24-1.06-.75-1.53-1.63-1.48-2.94,.15-4.02-.08-8-1.22-11.9-.24-.82-.68-1.39-1.58-1.27-.81,.11-1.21,.69-1.19,1.51,.08,4.54,.11,9.09,.27,13.63,.04,1.19,.39,2.39,.76,3.53,1.2,3.73,2.43,7.44,3.72,11.14,1,2.86,2.76,5.22,5.15,7.09,1.71,1.34,3.36,2.78,5.21,3.88,2.49,1.49,3.56,3.85,4.65,6.38l-3.44,1.72c-.2-.31-.42-.56-.53-.85-.75-1.98-2.07-3.43-3.84-4.59-1.6-1.05-3.09-2.27-4.6-3.46-3.06-2.41-5.28-5.47-6.5-9.16-1.57-4.74-3.33-9.46-4.35-14.33-.73-3.5-.39-7.22-.52-10.84-.02-.5,0-1,0-1.7ZM52.13,4.01c-1.44,0-2.77,0-4.1,0-2.72,.02-4.34,1.64-4.34,4.39,0,21.11,0,42.22,0,63.33,0,2.73,1.64,4.39,4.34,4.39,6.97,.01,13.94,0,20.9,.02,.74,0,1.06-.24,1.36-.91,.67-1.53,1.89-2.49,3.52-2.93,2.11-.56,3.82,.23,5.54,1.73,.15-.77,.31-1.36,.38-1.95,.22-2-.3-3.82-1.08-5.67-1.04-2.46-1.65-5.15,.06-7.53,.89-1.24,1.05-2.42,1.04-3.8,0-.8-.13-1.3-.98-1.74-3.64-1.87-4.11-6.69-.98-9.33,.24-.2,.48-.4,.73-.62-3.39-2.39-4.23-7.11,.46-10.15-.08-.09-.15-.19-.24-.25-4.23-3.17-4.03-8.24,.41-11.18,.28-.19,.55-.63,.55-.96,.03-4.34,.06-8.68,0-13.02-.02-1.97-1.58-3.64-3.51-3.78-1.61-.12-3.24-.02-4.91-.02-.53,2.07-1.03,4.08-1.55,6.09-.37,1.41-.95,1.89-2.37,1.89-3.76,.01-7.51,.01-11.27,0-1.51,0-2.05-.45-2.45-1.96-.51-1.98-1.01-3.95-1.54-6.05Zm1.86,76.12c-2.12,0-3.94,0-5.77,0-5.18-.01-8.54-3.36-8.54-8.54,0-6.26-.12-12.52,.04-18.77,.11-4.47-.4-8.79-1.64-13.07-.3-1.05-.28-2.33,0-3.39,1.09-4.04,1.91-8.09,1.62-12.32-.14-2.12-.02-4.25-.03-6.38,0-.87-.44-1.58-1.28-1.54-.56,.03-1.11,.64-1.64,1.02-.11,.08-.1,.31-.16,.47-2.57,7.7-5.23,15.38-7.65,23.13-.76,2.43-1.18,5.05-1.23,7.6-.16,7.63-.04,15.27-.08,22.9,0,.82,.26,1.26,.94,1.69,6.47,4.12,12.92,8.28,19.37,12.42,.34,.22,.7,.4,1.09,.62,1.62-1.91,3.18-3.75,4.96-5.84Zm-4.97,10.67c-8.33-5.35-16.53-10.62-24.81-15.95l-7.1,10.34c8.69,5.43,17.26,10.78,25.88,16.17,2.05-3.59,4.01-7.02,6.03-10.56Zm36.64,1.27c.39-5.66,.25-11.04-2.91-15.89-.53,.61-1.1,1.21-1.6,1.86-.15,.2-.2,.53-.18,.8,.25,3.27,.51,6.54,.79,9.81,.02,.26,.15,.58,.34,.74,1.13,.89,2.29,1.74,3.55,2.68Zm-2.36-62.04c1.04-.24,2.71-.6,4.36-1.02,1.46-.37,2.28-1.55,2.07-2.84-.21-1.32-1.3-2.26-2.8-2.09-1.69,.19-3.36,.6-5.01,.99-1.49,.35-2.31,1.49-2.15,2.78,.18,1.37,1.29,2.22,3.53,2.18Zm-1.5,10.05c.37-.05,.76-.04,1.11-.16,2.28-.78,4.55-1.57,6.81-2.4,1.05-.38,2.28-.71,1.99-2.25-.2-1.07-1.27-1.57-3.03-1.06-2.58,.76-5.1,1.76-7.63,2.68-.87,.31-1.46,.9-1.25,1.89,.22,1.03,1,1.35,2,1.29ZM57.26,7.97h8.92l.96-3.9h-10.83l.95,3.9Zm23.99,42.18c3.28-.31,5.61-1.8,7.96-3.2,.35-.21,.58-1.09,.45-1.54-.15-.51-.71-1-1.22-1.25-.39-.2-1.03-.17-1.46,0-2.18,.9-4.37,1.8-6.47,2.88-.42,.22-.76,1.3-.59,1.79,.21,.6,1,1,1.33,1.31Zm2.7-38.05c1.15-1.46,2.31-2.82,3.32-4.27,.87-1.24,.59-2.69-.5-3.43-1-.68-2.29-.46-3.11,.56-.16,.19-.27,.5-.25,.75,.15,2.06,.34,4.12,.54,6.38Z"/><path class="d" d="M47.75,64.02v-3.86h27.89v3.86h-27.89Z"/><path class="d" d="M69.67,52.17v3.87h-15.87v-3.87h15.87Z"/></g></g></svg>