<?xml version="1.0" encoding="UTF-8"?><svg xmlns="http://www.w3.org/2000/svg" viewBox="0 0 168.44 86.77"><defs><style>.f{fill:#ffb027;}</style></defs><g id="a"/><g id="b"><g id="c"><g id="d"><g id="e"><path class="f" d="M88.83,3.34c0-1.83,1.75-3.34,3.98-3.34s3.98,1.51,3.98,3.34V50.15c0,1.83-1.75,3.34-3.98,3.34s-3.98-1.51-3.98-3.34V3.34Zm15.92,0c0-1.83,1.75-3.34,3.98-3.34s3.98,1.51,3.98,3.34V50.15c0,1.83-1.75,3.34-3.98,3.34s-3.98-1.51-3.98-3.34V3.34Zm15.92,0c0-1.83,1.75-3.34,3.98-3.34s3.98,1.51,3.98,3.34V50.15c0,1.83-1.75,3.34-3.98,3.34s-3.98-1.51-3.98-3.34V3.34Zm15.92,0c0-1.83,1.75-3.34,3.98-3.34h7.96c2.23,0,3.98,1.51,3.98,3.34V50.15c0,1.83-1.75,3.34-3.98,3.34h-7.96c-2.23,0-3.98-1.51-3.98-3.34V3.34Zm23.88,0c0-1.83,1.75-3.34,3.98-3.34s3.98,1.51,3.98,3.34V50.15c0,1.83-1.75,3.34-3.98,3.34s-3.98-1.51-3.98-3.34V3.34Z"/><path class="f" d="M0,3.34C0,1.51,1.75,0,3.98,0s3.98,1.51,3.98,3.34V50.15c0,1.83-1.75,3.34-3.98,3.34s-3.98-1.51-3.98-3.34V3.34Zm15.92,0c0-1.83,1.75-3.34,3.98-3.34s3.98,1.51,3.98,3.34V50.15c0,1.83-1.75,3.34-3.98,3.34s-3.98-1.51-3.98-3.34V3.34Zm15.92,0c0-1.83,1.75-3.34,3.98-3.34s3.98,1.51,3.98,3.34V50.15c0,1.83-1.75,3.34-3.98,3.34s-3.98-1.51-3.98-3.34V3.34Zm15.92,0c0-1.83,1.75-3.34,3.98-3.34h7.96c2.23,0,3.98,1.51,3.98,3.34V50.15c0,1.83-1.75,3.34-3.98,3.34h-7.96c-2.23,0-3.98-1.51-3.98-3.34V3.34Zm23.88,0c0-1.83,1.75-3.34,3.98-3.34s3.98,1.51,3.98,3.34V50.15c0,1.83-1.75,3.34-3.98,3.34s-3.98-1.51-3.98-3.34V3.34Z"/><g><path class="f" d="M10.91,86.69c-1.75,0-3.34-.4-4.78-1.27-1.43-.8-2.47-1.91-3.34-3.34-.8-1.43-1.19-3.02-1.27-4.78v-15.44c0-.56,.16-.96,.48-1.27,.32-.32,.72-.48,1.19-.48,.56,0,.96,.16,1.27,.48s.48,.72,.48,1.27v9.15c.8-.96,1.75-1.67,2.87-2.23s2.31-.8,3.66-.8c1.67,0,3.1,.4,4.46,1.27,1.27,.8,2.31,1.91,3.1,3.34,.72,1.43,1.11,3.02,1.11,4.78s-.4,3.34-1.19,4.78-1.91,2.55-3.34,3.34c-1.43,.8-3.02,1.27-4.78,1.27l.08-.08Zm0-3.02c1.11,0,2.15-.24,3.1-.8,.96-.56,1.59-1.35,2.15-2.31s.8-2.07,.8-3.26-.24-2.31-.8-3.26c-.56-.96-1.27-1.67-2.15-2.23-.88-.56-1.91-.8-3.1-.8s-2.15,.24-3.02,.8-1.59,1.27-2.15,2.23-.8,2.07-.8,3.26,.24,2.31,.8,3.26c.48,.96,1.19,1.75,2.15,2.31s1.91,.8,3.02,.8Z"/><path class="f" d="M36.38,86.69c-1.67,0-3.1-.4-4.46-1.27-1.27-.8-2.31-1.91-3.1-3.34-.72-1.43-1.11-3.02-1.11-4.78s.4-3.42,1.19-4.78c.8-1.43,1.91-2.55,3.34-3.34s3.02-1.27,4.78-1.27,3.34,.4,4.78,1.27c1.43,.8,2.47,1.91,3.34,3.34,.8,1.43,1.27,3.02,1.27,4.78h-1.35c0,1.75-.4,3.34-1.11,4.78-.8,1.43-1.75,2.55-3.1,3.34-1.27,.8-2.79,1.27-4.46,1.27Zm8.28-.08c-.48,0-.88-.16-1.27-.48-.32-.32-.48-.72-.48-1.19v-5.25l.64-3.58,2.79,1.19v7.56c0,.48-.16,.88-.48,1.19s-.72,.48-1.27,.48l.08,.08Zm-7.56-2.95c1.11,0,2.15-.24,3.1-.8,.96-.56,1.59-1.27,2.15-2.23,.48-.96,.8-2.07,.8-3.26s-.24-2.31-.8-3.26c-.56-.96-1.19-1.75-2.15-2.23-.88-.56-1.91-.8-3.1-.8s-2.15,.24-3.02,.8-1.67,1.27-2.15,2.23c-.56,.96-.8,2.07-.8,3.26s.24,2.31,.8,3.26c.56,.96,1.27,1.75,2.15,2.23s1.91,.8,3.02,.8Z"/><path class="f" d="M56.52,86.53c-.56,0-.96-.16-1.27-.4-.32-.32-.48-.72-.48-1.27v-15.12c0-.56,.16-.96,.48-1.27,.32-.32,.72-.48,1.27-.48s.96,.16,1.27,.4c.32,.32,.4,.72,.4,1.27v15.2c0,.56-.16,.96-.4,1.27-.32,.32-.72,.48-1.27,.48v-.08Zm0-11.54c0-1.35,.32-2.55,1.03-3.66,.64-1.03,1.59-1.91,2.71-2.55,1.11-.64,2.39-.96,3.74-.96s2.39,.24,3.02,.64,.96,.96,.8,1.59c0,.32-.16,.56-.4,.72-.16,.16-.4,.24-.64,.32s-.48,0-.8,0c-1.43-.32-2.71-.32-3.9,0s-2.07,.72-2.71,1.35c-.64,.64-1.03,1.51-1.03,2.55h-1.83Z"/><path class="f" d="M81.59,86.69c-1.83,0-3.42-.4-4.86-1.27-1.43-.8-2.55-1.91-3.34-3.34s-1.19-3.02-1.19-4.78,.4-3.42,1.19-4.86c.8-1.43,1.91-2.55,3.26-3.34s2.95-1.19,4.78-1.19c1.35,0,2.55,.24,3.66,.8,1.11,.48,2.07,1.27,2.95,2.31,.32,.4,.4,.72,.32,1.11s-.32,.72-.72,1.03c-.32,.24-.64,.32-1.03,.24-.4,0-.72-.24-1.03-.56-1.11-1.19-2.47-1.75-4.14-1.75-1.11,0-2.15,.24-3.02,.8s-1.59,1.27-2.07,2.23-.72,2.07-.72,3.34c0,1.19,.24,2.31,.8,3.26,.48,.96,1.19,1.67,2.15,2.23,.88,.56,1.91,.8,3.18,.8,.8,0,1.51-.08,2.07-.32,.64-.16,1.11-.48,1.67-.88,.32-.32,.72-.48,1.11-.48s.72,0,1.03,.32c.4,.32,.64,.64,.64,1.03s-.08,.72-.4,1.03c-1.59,1.51-3.66,2.23-6.13,2.23h-.16Z"/><path class="f" d="M105.23,86.69c-1.83,0-3.42-.4-4.86-1.19-1.43-.8-2.47-1.91-3.26-3.34s-1.19-3.02-1.19-4.86,.4-3.5,1.19-4.86,1.91-2.55,3.26-3.34,3.02-1.19,4.86-1.19,3.42,.4,4.78,1.19,2.47,1.91,3.26,3.34,1.19,3.02,1.19,4.86-.4,3.42-1.19,4.86-1.91,2.55-3.26,3.34-3.02,1.19-4.86,1.19h.08Zm0-3.02c1.19,0,2.23-.24,3.1-.8,.88-.56,1.59-1.27,2.15-2.23,.48-.96,.8-2.07,.8-3.26s-.24-2.31-.8-3.26c-.48-.96-1.19-1.67-2.15-2.23s-1.91-.8-3.1-.8-2.23,.24-3.1,.8-1.59,1.27-2.15,2.23c-.56,.96-.8,2.07-.8,3.26s.24,2.31,.8,3.26c.48,.96,1.19,1.67,2.15,2.23,.88,.56,1.91,.8,3.1,.8Z"/><path class="f" d="M131.42,86.69c-1.75,0-3.34-.4-4.78-1.27-1.43-.88-2.55-1.91-3.34-3.34s-1.19-3.02-1.19-4.78,.4-3.34,1.11-4.78c.8-1.43,1.75-2.55,3.1-3.34,1.27-.8,2.79-1.27,4.46-1.27,1.35,0,2.55,.24,3.66,.8s2.07,1.27,2.87,2.23v-9.15c0-.56,.16-.96,.48-1.27s.72-.48,1.27-.48,.96,.16,1.27,.48,.48,.72,.48,1.27v15.52c0,1.75-.4,3.34-1.27,4.78s-1.91,2.55-3.34,3.34c-1.43,.8-2.95,1.27-4.78,1.27Zm0-3.02c1.11,0,2.15-.24,3.1-.8,.96-.56,1.59-1.35,2.15-2.31,.48-.96,.8-2.07,.8-3.26s-.24-2.31-.8-3.26-1.19-1.67-2.15-2.23c-.88-.56-1.91-.8-3.1-.8s-2.15,.24-3.02,.8c-.88,.56-1.67,1.27-2.15,2.23-.56,.96-.8,2.07-.8,3.26s.24,2.31,.8,3.26c.56,.96,1.27,1.75,2.15,2.31s1.91,.8,3.02,.8Z"/><path class="f" d="M158.8,86.69c-1.83,0-3.5-.4-5.01-1.19-1.43-.8-2.63-1.91-3.42-3.34s-1.19-3.02-1.19-4.86,.4-3.5,1.19-4.86,1.83-2.55,3.26-3.34,2.95-1.19,4.78-1.19,3.26,.4,4.54,1.19,2.23,1.83,2.87,3.18,1.03,2.95,1.03,4.7c0,.4-.16,.8-.48,1.03-.32,.32-.64,.4-1.11,.4h-13.61v-2.71h13.53l-1.35,.96c0-1.11-.24-2.15-.64-3.02s-1.03-1.59-1.83-2.15c-.8-.56-1.75-.8-2.87-.8-1.27,0-2.39,.32-3.26,.88s-1.59,1.35-2.07,2.31-.72,2.07-.72,3.34,.32,2.31,.88,3.34c.56,.96,1.35,1.75,2.31,2.31,.96,.56,2.15,.88,3.42,.88,.72,0,1.43-.16,2.15-.4s1.35-.56,1.75-.88c.32-.24,.72-.4,1.11-.4s.72,.08,1.03,.32c.4,.32,.56,.72,.64,1.11s-.16,.8-.56,1.03c-.8,.64-1.75,1.11-2.87,1.51s-2.23,.56-3.26,.56l-.24,.08Z"/></g></g></g></g></g></svg>