<?xml version="1.0" encoding="UTF-8"?><svg xmlns="http://www.w3.org/2000/svg" viewBox="0 0 209.4 161.55"><defs><style>.d{fill:#ffb027;}</style></defs><g id="a"/><g id="b"><g id="c"><g><path class="d" d="M195.94,67.26c1.32-3.92,.96-8.3-1.12-12.09-2.1-3.83-5.53-6.44-9.54-7.42l5.5-42.48c.17-1.33-.24-2.67-1.12-3.68-.89-1.01-2.17-1.59-3.51-1.59H23.25c-1.34,0-2.62,.58-3.51,1.59-.89,1.01-1.3,2.35-1.12,3.68l5.5,42.49c-4.39,1.08-8.08,4.13-10.05,8.5-1.62,3.61-1.79,7.5-.61,11-7.58,1.01-13.46,7.59-13.46,15.55v.19l6.88,63.04c.11,8.57,7.01,15.5,15.48,15.5H187.03c8.47,0,15.38-6.94,15.48-15.5l6.86-62.86,.02-.38c0-7.96-5.88-14.54-13.46-15.55Zm-7.26-8.72c1.46,2.66,1.4,5.71-.17,8.16-.08,.13-.14,.27-.21,.41h-5.53l1.59-12.31c1.79,.65,3.32,1.94,4.31,3.74Zm-5.19-51.54l-7.78,60.11H33.68L25.9,7H183.49ZM20.45,59.13c.77-1.72,2.31-3.52,4.57-4.35l1.59,12.32h-5.45c-1.95-2.67-1.69-5.82-.72-7.98Zm175.09,86.33l-.02,.38c0,4.8-3.81,8.7-8.49,8.7H22.36c-4.68,0-8.49-3.9-8.49-8.7v-.19l-6.87-63.02c.09-4.72,3.86-8.53,8.48-8.53H193.91c4.62,0,8.39,3.81,8.48,8.53l-6.85,62.83Z"/><path class="d" d="M70.16,114.33c0,1.93,1.57,3.5,3.5,3.5h62.08c1.93,0,3.5-1.57,3.5-3.5s-1.57-3.5-3.5-3.5h-62.08c-1.93,0-3.5,1.57-3.5,3.5Z"/><path class="d" d="M42.63,23.19h23.94c1.93,0,3.5-1.57,3.5-3.5s-1.57-3.5-3.5-3.5h-23.94c-1.93,0-3.5,1.57-3.5,3.5s1.57,3.5,3.5,3.5Z"/><path class="d" d="M119.07,40.02c1.93,0,3.5-1.57,3.5-3.5s-1.57-3.5-3.5-3.5H46.63c-1.93,0-3.5,1.57-3.5,3.5s1.57,3.5,3.5,3.5H119.07Z"/><path class="d" d="M162.79,33.02h-30.71c-1.93,0-3.5,1.57-3.5,3.5s1.57,3.5,3.5,3.5h30.71c1.93,0,3.5-1.57,3.5-3.5s-1.57-3.5-3.5-3.5Z"/><path class="d" d="M160.95,49.61h-54.74c-1.93,0-3.5,1.57-3.5,3.5s1.57,3.5,3.5,3.5h54.74c1.93,0,3.5-1.57,3.5-3.5s-1.57-3.5-3.5-3.5Z"/><path class="d" d="M94.46,49.61H49.51c-1.93,0-3.5,1.57-3.5,3.5s1.57,3.5,3.5,3.5h44.94c1.93,0,3.5-1.57,3.5-3.5s-1.57-3.5-3.5-3.5Z"/><path class="d" d="M79.65,23.19h87.11c1.93,0,3.5-1.57,3.5-3.5s-1.57-3.5-3.5-3.5H79.65c-1.93,0-3.5,1.57-3.5,3.5s1.57,3.5,3.5,3.5Z"/><path class="d" d="M70.74,124.37c-4.43,0-8.04-3.61-8.04-8.04s3.61-8.04,8.04-8.04c1.93,0,3.5-1.57,3.5-3.5s-1.57-3.5-3.5-3.5c-8.29,0-15.04,6.75-15.04,15.04s6.75,15.04,15.04,15.04c1.93,0,3.5-1.57,3.5-3.5s-1.57-3.5-3.5-3.5Z"/><path class="d" d="M138.66,101.29c-1.93,0-3.5,1.57-3.5,3.5s1.57,3.5,3.5,3.5c4.43,0,8.04,3.61,8.04,8.04s-3.61,8.04-8.04,8.04c-1.93,0-3.5,1.57-3.5,3.5s1.57,3.5,3.5,3.5c8.29,0,15.04-6.75,15.04-15.04s-6.75-15.04-15.04-15.04Z"/></g></g></g></svg>