<?xml version="1.0" encoding="UTF-8"?><svg xmlns="http://www.w3.org/2000/svg" viewBox="0 0 147.92 127.61"><defs><style>.d{fill:none;stroke:#ffb027;stroke-linecap:round;stroke-miterlimit:10;stroke-width:4px;}.e{fill:#ffb027;}</style></defs><g id="a"/><g id="b"><g id="c"><path class="e" d="M139.72,0H68.6c-4.52,0-8.19,3.68-8.19,8.19V29.79c1.26-.52,2.69-.49,4,.38V8.19c0-2.31,1.88-4.19,4.19-4.19h71.12c2.31,0,4.19,1.88,4.19,4.19V119.41c0,2.31-1.88,4.19-4.19,4.19H68.6c-2.31,0-4.19-1.88-4.19-4.19v-24.57c-.17,.39-.34,.77-.52,1.18-.77,1.76-2.09,2.53-3.48,2.6v20.8c0,4.52,3.68,8.19,8.19,8.19h71.12c4.52,0,8.19-3.68,8.19-8.19V8.19c0-4.52-3.68-8.19-8.19-8.19Z"/><g><path class="e" d="M71.02,53.24c.67,1.4,1.26,2.62,1.85,3.83,1.28,2.66,2.56,5.32,3.85,7.98,.38,.79,.5,1.56-.08,2.29-.82,1.03-2.35,.79-3.01-.51-.81-1.6-1.57-3.24-2.35-4.86-1.65-3.42-3.31-6.84-4.94-10.28-.24-.51-.39-1.08-.44-1.64-.21-2.23-.39-4.46-.53-6.69-.04-.61-.25-.87-.85-1.01-1.62-.35-3.23-.77-4.85-1.18-1.3-.33-1.94-1.17-1.7-2.22,.25-1.06,1.21-1.55,2.5-1.23,2.24,.55,4.47,1.15,6.71,1.68,1.02,.24,1.48,.83,1.55,1.85,.15,2.37,.35,4.73,.48,7.1,.04,.66,.27,.95,.9,1.1,1.02,.24,2.02,.56,3.08,.86,.93-2.16,1.85-4.27,2.74-6.4,.1-.24,.05-.6-.05-.87-1.36-3.94-2.74-7.88-4.12-11.82-.16-.47-.32-.82-.96-.81-6.2,.08-12.4,.13-18.6,.19-.13,0-.26,.04-.5,.09,.62,1.61,1.21,3.18,1.82,4.74,.64,1.64,1.29,3.28,1.93,4.93,.49,1.28,.2,2.25-.79,2.68-1.01,.44-1.96-.06-2.49-1.39-1.84-4.64-3.67-9.27-5.46-13.93-.25-.65-.51-.96-1.27-.99-4.71-.19-9.41-.43-14.12-.69-.6-.03-.99,.1-1.37,.6-2.51,3.29-5.06,6.54-7.56,9.84-.26,.34-.38,.93-.31,1.36,.29,1.74,.69,3.45,1.03,5.18,.32,1.61-.17,2.29-1.78,2.51-2.96,.39-5.9,.87-8.87,1.13-1.61,.14-2.6,1.23-3.81,1.99-1.41,.88-2.72,1.9-4.1,2.84-.55,.38-.8,.72-.62,1.48,.99,4.05,1.88,8.12,2.84,12.17,.09,.38,.35,.84,.67,1.04,4.24,2.55,8.51,5.06,12.78,7.57,.05,.03,.13,.03,.32,.06,.18-1.5,.36-2.99,.53-4.48,.15-1.25,.34-2.49,.41-3.74,.02-.4-.16-.93-.45-1.2-1.75-1.69-3.57-3.33-5.35-4.99-1.34-1.25-1.29-2.27,.21-3.29,6.57-4.45,13.15-8.88,19.74-13.3,1.31-.88,2.26-.76,2.9,.24,.58,.91,.2,1.86-1.02,2.69-6.02,4.05-12.04,8.1-18.18,12.24,1.06,.96,2.09,1.87,3.08,2.81,3.48,3.28,2.98,1.76,2.46,6.55-.56,5.12-1.19,10.24-1.79,15.36-.17,1.47-.88,2.29-1.88,2.21-1.13-.09-1.78-1.1-1.63-2.59,.13-1.32,.23-2.64,.42-3.94,.09-.64-.12-.97-.66-1.28-4.85-2.86-9.7-5.72-14.5-8.66-.57-.35-1.13-1.04-1.28-1.68-1.21-4.94-2.32-9.9-3.45-14.85-.3-1.33-.1-1.81,1.01-2.59,2.6-1.84,5.19-3.71,7.82-5.5,.56-.38,1.29-.62,1.97-.7,2.89-.35,5.78-.62,8.8-.92-.34-1.62-.63-3.17-1.01-4.7-.23-.91-.05-1.63,.52-2.36,3.05-3.9,6.07-7.82,9.08-11.75,.55-.72,1.2-.99,2.1-.94,5.75,.34,11.51,.67,17.26,.97,.89,.05,1.53,.37,1.76,1.22,.57,2.07,1.8,2.63,3.98,2.54,6.23-.26,12.47-.19,18.7-.25,1.56-.02,1.96,.24,2.48,1.71,1.64,4.64,3.28,9.27,4.85,13.93,.21,.61,.14,1.43-.09,2.05-.82,2.19-1.77,4.33-2.72,6.59,.48,.15,.92,.28,1.36,.41,3.26,.93,6.52,1.87,9.8,2.76,.9,.24,1.46,.73,1.86,1.56,1.88,3.95,3.81,7.88,5.67,11.85,.27,.57,.38,1.32,.28,1.94-.75,4.59-1.59,9.16-2.38,13.74-.17,1-.67,1.63-1.58,2.07-6.52,3.12-13.03,6.26-19.54,9.42-.85,.41-1.59,.42-2.41-.04-1.06-.59-2.15-1.12-3.29-1.71-1.08,1.82-2.08,3.59-3.17,5.3-.36,.56-.91,1.11-1.5,1.41-5.94,2.91-11.91,5.78-17.88,8.63-.62,.3-1.35,.48-2.04,.53-5.85,.43-11.69,.83-17.54,1.23-1.52,.1-2.16-.39-2.35-1.86-.47-3.59-.91-7.19-1.39-10.78-.1-.8,.01-1.5,.71-1.98,1.1-.75,2.51-.07,2.71,1.34,.42,2.92,.79,5.84,1.18,8.76,.04,.3,.08,.6,.14,.98,1.34-.09,2.65-.17,3.96-.26,2.33-.16,4.66-.45,7-.45,3.99,0,7.62-1.04,11.14-2.94,3.91-2.11,8-3.88,11.98-5.85,.51-.25,.99-.71,1.3-1.19,.93-1.41,1.76-2.87,2.69-4.41-2.44-1.25-4.78-2.45-7.2-3.69-.73,1.25-1.35,2.5-2.16,3.61-.42,.57-1.14,1.13-1.81,1.26-3.89,.75-7.8,1.4-11.72,1.98-.7,.1-1.58-.08-2.18-.45-2.62-1.63-5.17-3.37-7.74-5.08-1.49-.99-1.62-1.91-.46-3.25,2.3-2.67,4.6-5.34,6.93-7.98,.47-.53,.49-.92,.12-1.5-2.16-3.41-4.28-6.84-6.41-10.27-.29-.46-.57-.93-.84-1.39-.45-.78-.37-1.52,.27-2.14,3.97-3.89,7.94-7.77,11.93-11.64,.56-.54,1.22-.62,1.98-.35,2.3,.84,4.6,1.64,6.92,2.41,.3,.1,.73,.08,.99-.07,.75-.45,1.47-.56,2.18-.01,.74,.57,.83,1.35,.53,2.2-.61,1.73-1.21,3.46-1.81,5.19-.56,1.6-1.11,3.21-1.69,4.8-.43,1.2-1.33,1.66-2.37,1.27-1-.38-1.37-1.24-.96-2.43,.85-2.46,1.74-4.92,2.64-7.46-2.17-.75-4.21-1.47-6.27-2.14-.24-.08-.67,.05-.87,.23-3.11,2.98-6.17,5.99-9.29,8.96-.56,.53-.23,.89,.03,1.31,1.79,2.88,3.59,5.75,5.39,8.63,.54,.86,1.05,1.74,1.61,2.59,.62,.94,.48,1.75-.25,2.57-2.13,2.41-4.23,4.85-6.34,7.28-.26,.3-.52,.62-.84,1.01,2.05,1.35,4.04,2.69,6.06,3.98,.21,.14,.59,.07,.88,.02,3.24-.53,6.49-1.06,9.72-1.65,.4-.07,.86-.4,1.09-.75,.77-1.15,1.45-2.37,2.18-3.56,.82-1.33,1.58-1.55,2.97-.84,4.5,2.31,9,4.61,13.48,6.94,.64,.33,1.14,.33,1.79,.01,5.71-2.78,11.42-5.54,17.15-8.26,.7-.33,.99-.75,1.12-1.5,.66-3.85,1.39-7.68,2.04-11.52,.09-.52,.02-1.16-.2-1.63-1.57-3.35-3.18-6.68-4.81-10-.17-.35-.53-.73-.88-.84-4.85-1.42-9.72-2.79-14.58-4.18-.12-.04-.26-.05-.64-.11Z"/><path class="e" d="M66.53,80.35c-.61-.05-1.17,.02-1.65-.15-4.56-1.54-9.11-3.1-13.66-4.68-1.1-.38-1.57-1.27-1.27-2.21,.31-.96,1.4-1.48,2.49-1.11,3.84,1.33,7.69,2.65,11.51,4.04,.88,.32,1.48,.32,2.04-.53,.5-.76,1.36-1.05,2.14-.61,.5,.29,.79,.98,1.11,1.54,.09,.16,.02,.52-.11,.67-.83,1.01-1.7,1.99-2.61,3.03Z"/><path class="e" d="M73.11,73.16c-.87,.42-1.99,.1-2.4-.67-.48-.92-.13-2.01,.77-2.42,.91-.42,2.03-.03,2.43,.84,.38,.83,.02,1.85-.8,2.25Z"/><path class="e" d="M56.12,49.5c-.88,.42-1.9,.08-2.33-.78-.44-.88-.05-1.94,.89-2.37,.88-.4,1.91-.02,2.3,.85,.39,.87,.02,1.88-.86,2.3Z"/><path class="e" d="M22.02,91.65c-.84,.39-1.95-.01-2.33-.85-.39-.86,0-1.88,.9-2.31,.87-.42,1.84-.03,2.26,.92,.38,.85,.01,1.84-.82,2.24Z"/></g><line class="d" x1="75.24" y1="13.31" x2="130.9" y2="13.31"/><line class="d" x1="75.24" y1="110.29" x2="130.9" y2="110.29"/><line class="d" x1="95.65" y1="46.95" x2="130.9" y2="46.95"/><line class="d" x1="103.07" y1="65.9" x2="130.9" y2="65.9"/><line class="d" x1="81.35" y1="30.13" x2="130.9" y2="30.13"/></g></g></svg>