<?xml version="1.0" encoding="UTF-8"?><svg xmlns="http://www.w3.org/2000/svg" viewBox="0 0 130.29 130.58"><defs><style>.d{fill:#ffb027;}</style></defs><g id="a"/><g id="b"><g id="c"><g><path class="d" d="M129.65,122.24c-2.29-5.23-4.24-10.6-6.3-15.93-1.11-2.85-2.63-5.66-3.09-8.62-.62-3.91-.4-7.96-.47-11.95,0-.29,.57-.75,.95-.86,3.09-.86,4.99-3.42,4.65-6.37-.36-3.05-2.81-5.18-6.06-5.18-6.65-.02-13.29-.02-19.94,0-3.21,.01-5.64,2.19-5.98,5.28-.31,2.86,1.63,5.52,4.63,6.22,.75,.18,1.04,.43,1.08,1.26,.38,6.82-.41,13.35-3.37,19.67-2.53,5.4-4.44,11.1-6.62,16.67l-.38,.09c-.57-13.39-5.91-23.74-18.62-29.41,.37-.34,.63-.6,.91-.84,5-4.31,8.88-9.48,11.8-15.38,5.65-11.41,7.33-23.44,5.13-35.94-2.22-12.58-7.83-23.41-17.83-31.6C60.52,1.46,49.5-1.66,37.19,.84c-10.38,2.11-18.54,7.88-24.95,16.16C5.72,25.42,2.15,35.03,1.23,45.6-.03,60.15,3.36,73.48,12.22,85.21c2.08,2.75,4.6,5.16,6.94,7.74-.05,.03-.2,.14-.36,.21-10.15,4.39-16.11,12.06-17.93,22.96-.35,2.11-.64,4.23-.84,6.36-.42,4.42,3.18,8.04,8.01,8.04,15.25,.01,30.49,0,45.74,0,9.02,0,18.04,0,27.05,0,3.2,0,5.65-1.28,7.22-4.12,.08-.15,.22-.27,.36-.44,1.15,3.4,2.76,4.55,6.33,4.55,9.76,0,19.53-.13,29.28,.06,4.58,.09,7.67-3.68,5.63-8.34ZM5.92,61.4c-1.1-4.7-1.28-9.48-.92-14.25,.74-10.05,3.89-19.27,10.01-27.36,5.77-7.62,13.13-13.03,22.59-15.04,12.02-2.55,22.58,.76,31.58,8.89,9.48,8.56,14.28,19.55,15.51,32.12,1.23,12.44-1.45,24.02-8.3,34.55-2.71,4.17-6.05,7.77-10.07,10.71-.48,.35-1.25,.49-1.87,.46-2.27-.1-4.53-.34-6.8-.49-.78-.05-1.56,0-2.48,0,0-1.47-.04-2.81,.03-4.14,.02-.29,.42-.69,.73-.82,6.56-2.82,11.52-7.37,14.97-13.63,.22-.4,1.03-.64,1.57-.67,4.35-.2,7.6-2.18,9.4-6.11,1.82-3.99,1.22-7.81-1.57-11.22-1.37-1.68-2.96-2.58-5.94-3.49,0-.86-.07-1.78,.02-2.69,.15-1.55-.53-2.49-1.84-3.26-4.98-2.93-9.11-6.72-11.82-11.91-1.72-3.29-2.7-6.81-3.09-10.49-.11-1.03-.44-1.94-1.59-2.2-1.05-.23-1.76,.27-2.3,1.16-7.73,12.62-19.31,19.6-33.44,22.85-1.27,.29-2.53,.58-3.81,.83-1.29,.25-2.08,1.02-1.9,2.31,.34,2.37-.4,3.57-2.8,4.53-3.51,1.41-5.28,4.53-5.72,8.31-.04,.35-.05,.71-.14,1.07Zm37.81,23.52c-12.97-.58-23.11-9.48-24.95-22.38-.61-4.29-.29-8.72-.24-13.09,0-.44,1.16-.86,1.79-1.29l.37,.32c0,1.66,0,3.32,0,4.98,0,2.45,.33,4.82,1.53,7,1.53,2.78,3.72,4.42,7.07,4.27,2.32-.1,4.65-.02,6.97-.02,4.43,0,5.22-.32,8.36-3.43,2.03,3.03,5.05,3.61,8.42,3.45,2.32-.11,4.65-.08,6.97,0,2.68,.08,4.63-1.13,6.11-3.25,1.45-2.08,2.09-4.44,2.13-6.96,.04-2.44,0-4.88,0-7.49,1.5,.64,2.35,1.27,2.25,3-.23,3.99,.05,8.01-.32,11.98-1.22,13.11-13.31,23.48-26.46,22.9Zm7.5,6.95c0,.21-.12,.45-.27,.61-2.13,2.26-4.27,4.5-6.47,6.82-2.16-2.28-4.26-4.43-6.29-6.66-.32-.35-.42-1-.44-1.52-.06-1.14-.02-2.29-.02-3.56,4.56,.96,8.94,1,13.5-.03,0,1.52,.01,2.93-.01,4.34Zm13.16-44.1c-.27,3.49,.62,7.02-.87,10.4-.78,1.77-1.95,2.79-4.08,2.68-2.73-.14-5.48-.02-8.22-.04-1.93-.01-2.99-.75-3.71-2.56-.38-.95-.59-1.99-1.13-2.83-.37-.58-1.16-1.22-1.77-1.23-.61-.01-1.43,.6-1.8,1.18-.59,.92-.88,2.03-1.31,3.06-.65,1.59-1.83,2.4-3.56,2.39-3.02,0-6.04,.1-9.06-.06-.89-.05-2.01-.59-2.56-1.28-.75-.94-1.38-2.21-1.47-3.38-.21-2.72-.07-5.46-.07-8.33h39.6Zm-29.08-4.1c3.23-2.16,6.95-4.27,10.22-6.94,3.25-2.65,6.05-5.85,9.05-8.81,2.7,7.93,3.75,9.69,9.49,15.75h-28.76Zm37.97,24.03c.47-4.17,.94-8.29,1.41-12.42,2.1,.2,4.18,2.88,4.26,5.79,.09,3.46-2.31,6.21-5.66,6.63Zm-57.68-.03c-2.78-.16-5.3-2.6-5.62-5.67-.33-3.1,1.47-5.95,4.26-6.8,.45,4.14,.91,8.29,1.37,12.47Zm-8.36-.49c-.07-.21-.06-.45-.14-1.02,.46,.62,.72,.98,.99,1.32,2.13,2.74,4.9,4.22,8.39,4.2,.84,0,1.31,.18,1.73,.96,3.32,6.09,8.19,10.51,14.55,13.25,.8,.35,1.16,.75,1.09,1.64-.08,.97-.03,1.95-.04,2.93,0,.13-.08,.26-.13,.42-2.31,.1-4.67-.05-6.92,.38-2.15,.41-3.57-.35-5.08-1.65-7.04-6.06-11.62-13.67-14.43-22.43Zm5.98,59.4c-2.15,0-4.15,.12-6.12-.03-1.94-.15-3.4-1.89-3.16-3.76,.42-3.22,.79-6.46,1.6-9.6,1.3-5.07,4.17-9.22,8.57-12.82-2.25,8.89-2.52,17.48-.89,26.21Zm3.87-.06c-.31-2.63-.76-5.29-.92-7.96-.4-6.88,.41-13.63,2.7-20.16,.22-.64,.86-1.37,1.47-1.58,2.25-.77,4.56-1.34,7.22-2.09-1.17,4.14-2.2,7.75-3.22,11.35-.54,1.92-1.11,3.83-1.62,5.76-.51,1.91,.65,3.11,2.57,2.66,2.15-.51,4.3-1.06,6.68-1.66-.26,1.37-.45,2.54-.72,3.7-.29,1.25-.01,2.21,.97,3.11,2.4,2.18,4.71,4.45,7.24,6.87H17.08Zm25.45-2.5c-.8-.74-1.32-1.23-1.83-1.72-1.52-1.44-2.98-2.94-4.57-4.29-.85-.72-.96-1.45-.74-2.43,.34-1.49,.6-3,.89-4.5,.41-2.13-.7-3.16-2.84-2.63-1.97,.48-3.94,.97-6.16,1.52,1.42-4.95,2.78-9.62,4.07-14.31,.27-.96,.92-.72,1.52-.75,.82-.03,1.54-.13,1.94,1.01,1.69,4.86,3.5,9.68,5.27,14.51,.46,1.26,.81,2.58,1.41,3.78,1.51,3.03,.92,6.23,1.05,9.82Zm-1.47-22.25c1.13,.79,2.2,2.12,3.3,2.14,1.12,.02,2.27-1.24,3.38-1.92-1.03,2.81-2.11,5.77-3.31,9.02-1.21-3.3-2.3-6.27-3.38-9.25Zm6.64,11.56c2.21-5.31,4.02-10.78,6-16.19q.86-2.34,3.63-2.16c1.39,4.86,2.8,9.79,4.28,14.97-1.8-.44-3.43-.83-5.06-1.23-.5-.12-.98-.29-1.48-.39-1.66-.33-2.76,.66-2.51,2.34,.28,1.84,.69,3.65,.99,5.48,.06,.4,.03,.99-.21,1.24-2.18,2.14-4.41,4.22-6.87,6.54-.09-3.84-.18-7.23,1.23-10.6Zm24.12,12.42c-.06,.34-.61,.84-.94,.84-7.01,.04-14.03,.01-21.04,0-.03,0-.06-.06-.21-.25,2.32-2.2,4.57-4.42,6.91-6.53,1.06-.95,1.45-1.95,1.1-3.33-.28-1.11-.44-2.24-.7-3.61,2.29,.56,4.34,1.07,6.39,1.57,2.31,.56,3.42-.57,2.78-2.86-1.44-5.14-2.91-10.27-4.36-15.4-.09-.3-.14-.61-.25-1.06,2.82,.14,5.37,.9,7.83,2.01,.27,.12,.48,.55,.59,.87,3.13,9.08,3.63,18.34,1.89,27.75Zm9.24,.88c-1.58,.03-3.16,0-4.74,0-.13,0-.27-.05-.63-.12,1.57-8.67,1.35-17.22-.8-25.72,.18-.13,.36-.26,.54-.39,.99,1.15,1.98,2.3,2.96,3.45,3.58,4.21,5.44,9.12,6.02,14.57,.13,1.25,.35,2.48,.51,3.73,.34,2.62-1.21,4.44-3.86,4.49Zm16.23-47.47c0-1.05,.82-1.89,1.99-1.9,6.74-.02,13.47-.02,20.21,0,1.22,0,1.91,.68,2.01,1.87,.09,1.13-.82,2-2.18,2.02-3.34,.04-6.69,.01-10.04,.01-3.21,0-6.41,.02-9.62,0-1.47-.01-2.38-.81-2.38-1.98Zm5.8,5.98h12.66c.43,5.56-.75,11.26,1.63,16.69h-15.93c2.42-5.4,1.22-11.08,1.64-16.69Zm21.27,41.49c-4.97,.01-9.95,0-14.92,0-4.97,0-9.95,0-14.92,0-2,0-2.52-.75-1.79-2.61,2.23-5.71,4.5-11.4,6.69-17.12,.35-.92,.82-1.14,1.73-1.13,5.53,.04,11.06,.04,16.59,0,.86,0,1.3,.21,1.63,1.07,2.21,5.76,4.5,11.5,6.74,17.25,.69,1.77,.16,2.54-1.75,2.54Z"/><path class="d" d="M48.33,66.65c-2.61,1.61-5.14,1.44-7.75,0-1.14-.63-2.19-.27-2.74,.74-.53,.99-.25,2.12,.95,2.65,1.83,.8,3.76,1.38,5.65,2.05l.14-.37c2.1,0,4.02-.59,5.74-1.77,.97-.67,1.27-1.62,.64-2.66-.63-1.04-1.63-1.26-2.64-.64Z"/><path class="d" d="M54.55,55.66c.06,1.08,.63,1.74,1.7,1.85,1.15,.12,1.96-.48,2.09-1.58,.15-1.18,.13-2.42-.02-3.6-.13-1.04-.94-1.63-2-1.54-1.04,.08-1.69,.71-1.77,1.8-.04,.51,0,1.02,0,1.53h0c0,.51-.02,1.02,0,1.53Z"/><path class="d" d="M32.34,57.53c1,.04,1.71-.45,1.92-1.44,.13-.63,.12-1.29,.17-1.93h-.08c0-.51,.05-1.03,0-1.53-.12-1.12-.78-1.83-1.91-1.82-1.19,0-1.89,.72-1.93,1.93-.04,1.06-.05,2.14,.04,3.19,.09,1.02,.79,1.56,1.78,1.6Z"/></g></g></g></svg>