<?xml version="1.0" encoding="UTF-8"?><svg xmlns="http://www.w3.org/2000/svg" viewBox="0 0 171.97 139.16"><defs><style>.d{fill:#ffb027;}</style></defs><g id="a"/><g id="b"><g id="c"><path class="d" d="M113.97,120.08h25.33c2.66,10.38-4.68,19.01-15.96,19.04-21.33,.07-42.66,.02-64,.02-5.17,0-10.33,.03-15.5,0-10.69-.07-17.18-6.44-17.2-17.09-.05-29.33-.02-58.66-.03-88,0-1.46-.12-2.91-.2-4.67-2.59,.94-4.81,2.08-7.17,2.55C10.14,33.74,1.42,27.29,.13,17.99-1.07,9.27,5.95,.68,15.09,.2c6.65-.35,13.33-.12,19.99-.13,19.67,0,39.33-.02,59,0,12.8,.02,19.84,7.01,19.87,19.71,.03,10.91,0,21.83,0,33.77,4.58-4.19,8.04-8.02,12.13-10.96,7.28-5.23,14.79-10.16,22.51-14.71,3.05-1.8,6.84-2.7,10.41-3.23,9.85-1.46,14.96,4.56,12.25,14.14-2.7,9.55-8.43,17.34-14.94,24.54-11.27,12.47-23.91,23.16-39.79,29.51-1.14,.46-2.41,2.29-2.44,3.52-.22,7.64-.11,15.3-.11,23.72Zm-6.15-24.75c-6.1-3.74-8.63,.7-11.81,4.01-1.84,1.91-3.31,6.66-6.72,3.85-3.84-3.16,1.04-5.27,2.56-7.61,1.69-2.6,5.49-5.13,5.3-7.44-.8-9.91,4.34-17.14,9.15-24.75,1.07-1.7,1.66-3.98,1.69-6.01,.15-12.5,.1-24.99,.07-37.49-.02-9.87-4.09-13.95-13.99-13.96-18.16-.03-36.32-.01-54.49-.01-3.27,0-6.55,0-8.89,0,.52,6.01,1.38,11.55,1.41,17.09,.13,32.16,.06,64.32,.07,96.48,0,1.5-.09,3.01,.08,4.49,.61,5.23,4.96,9.29,10.01,9.45,5.07,.16,9.57-3.62,10.48-8.87,.22-1.29,.31-2.59,.52-4.42h54.57v-24.81Zm-4.73-14.21l1.11,.64c1.41-1.37,2.75-2.81,4.23-4.1,12.67-11.03,25.31-22.11,38.14-32.94,1.14-.96,3.63-.3,5.5-.4-.69,1.59-.96,3.67-2.15,4.67-5.97,5.05-12.43,9.54-18.26,14.74-8.63,7.69-16.87,15.81-25.28,23.75l.85,1.57c2.59-.65,5.35-.95,7.76-2.02,20.96-9.22,37.14-23.88,48.22-43.87,1.82-3.29,3.27-8.96,1.67-11.47-2.49-3.91-7.67-1.26-11.39,.33-18.78,8.03-33.2,21.31-44.58,38.03-2.33,3.42-3.91,7.35-5.83,11.05Zm-46.93,51.66c.26,.18,.51,.51,.77,.51,22.81,.04,45.62,.15,68.43-.02,4.07-.03,6.93-2.61,8.54-7.2-2.32,0-4.09,0-5.87,0-21.15,0-42.31,.22-63.45-.14-5.46-.09-7.85,1.79-8.43,6.85ZM16.4,5.94c-5.87-.09-10.51,4.44-10.48,10.23,.03,5.63,4.39,9.99,10.07,10.08,5.84,.09,10.61-4.49,10.6-10.17,0-5.42-4.66-10.04-10.19-10.13Z"/><path class="d" d="M71.14,59.98c-6.82,0-13.65,.19-20.46-.14-1.64-.08-3.2-1.91-4.79-2.94,1.53-.9,3.05-2.56,4.6-2.58,13.64-.21,27.28-.22,40.92,0,1.59,.03,3.15,1.88,4.72,2.89-1.68,.92-3.32,2.56-5.04,2.64-6.64,.31-13.3,.13-19.96,.12Z"/><path class="d" d="M70.67,80.2c-6.66,0-13.33,.19-19.97-.13-1.64-.08-3.21-1.81-4.81-2.78,1.51-.9,3.01-2.56,4.53-2.59,13.81-.2,27.63-.2,41.44,.01,1.44,.02,2.85,1.85,4.28,2.84-1.5,.88-2.97,2.47-4.51,2.53-6.98,.28-13.98,.12-20.97,.12Z"/><path class="d" d="M70.57,39.44c-6.81,0-13.63,.14-20.43-.11-1.43-.05-2.81-1.55-4.21-2.38,1.39-1.02,2.77-2.9,4.17-2.92,13.95-.22,27.91-.22,41.86,0,1.41,.02,2.78,1.87,4.17,2.87-1.38,.85-2.73,2.38-4.13,2.43-7.14,.25-14.28,.12-21.43,.12Z"/><path class="d" d="M60.03,94.93c3.48,0,6.98-.23,10.42,.12,1.24,.13,2.34,1.67,3.5,2.56-1.07,1.04-2.11,2.94-3.22,2.98-7.28,.26-14.57,.26-21.85-.03-1.04-.04-2-2.05-2.99-3.15,1.07-.83,2.08-2.27,3.21-2.37,3.62-.31,7.28-.11,10.92-.12Z"/></g></g></svg>