<?xml version="1.0" encoding="UTF-8"?><svg xmlns="http://www.w3.org/2000/svg" viewBox="0 0 140.03 126.75"><defs><style>.d{fill:#ffb027;}</style></defs><g id="a"/><g id="b"><g id="c"><g><path class="d" d="M41.91,111.78c1.11,3.43-.71,4.86-3.15,6.1-4.99,2.54-9.9,5.26-14.86,7.86-3.34,1.75-4.67,1.32-6.47-2.08-5.49-10.36-10.97-20.73-16.42-31.12-1.74-3.32-1.28-4.7,2.08-6.5,5.12-2.75,10.23-5.53,15.43-8.12,1.17-.58,3.16-1.1,3.98-.52,1.88,1.33,3.19,.69,4.73-.23,.98-.59,2.04-1.04,2.99-1.67,7.95-5.24,16.55-6.38,25.92-5.13,10.07,1.34,20.25,1.89,30.39,2.65,5.77,.43,8.51,2.38,10.52,8.3,1.37-.7,2.71-1.37,4.03-2.09,8.03-4.35,16.05-8.73,24.09-13.06,5.36-2.89,10.85-1.61,13.55,3.11,2.8,4.87,1.07,10.32-4.25,13.5-12.38,7.4-24.81,14.74-37.12,22.25-7.73,4.72-15.75,7.54-25.04,6.84-8.48-.63-17.02-.41-25.53-.51-1.44-.02-2.87,.23-4.85,.4Zm-2.74-4.65c2.87-.29,5.34-.76,7.8-.74,9.04,.06,18.09,.04,27.11,.52,6.64,.35,12.55-1.41,18.1-4.7,13.31-7.89,26.57-15.88,39.83-23.86,2.91-1.75,3.71-4.1,2.35-6.46-1.36-2.37-3.81-2.9-6.75-1.31-11.51,6.22-22.96,12.57-34.55,18.64-2.47,1.29-5.44,2.16-8.21,2.26-11.21,.43-22.43,.48-33.65,.67-.72,.01-1.64,.25-2.13-.09-.84-.58-1.94-1.52-1.97-2.34-.03-.79,1.02-1.88,1.86-2.37,.72-.42,1.82-.22,2.75-.24,11.32-.22,22.64-.39,33.97-.64,3.63-.08,5.86-1.91,5.93-4.63,.06-2.33-1.95-3.53-5.81-3.83-10.15-.79-20.39-1.03-30.39-2.72-11.08-1.88-19.84,2.36-28.69,8.21l12.47,23.64Z"/><path class="d" d="M83.88,0c18.54-.02,33.37,14.5,33.39,32.68,.01,18.1-14.98,32.82-33.39,32.79-18.38-.03-33.26-14.8-33.21-32.94C50.72,14.48,65.48,.02,83.88,0Zm.1,5.44c-15.45,.05-27.79,12.18-27.77,27.3,.02,15.06,12.54,27.27,27.89,27.2,15.28-.08,27.82-12.52,27.69-27.48-.13-14.88-12.68-27.07-27.81-27.02Z"/><path class="d" d="M89.11,24.41c-1.99,7.28-3.74,13.45-5.32,19.66-.32,1.27,.04,2.7,.08,4.06,1.15-.23,2.3-.44,3.45-.69,.77-.17,1.53-.38,2.29-.57l.64,.93c-1.89,1.52-3.56,3.6-5.71,4.45-4.16,1.63-7.96-1.76-7.16-6.39,.79-4.58,2.2-9.05,3.35-13.56,.5-1.97,1.69-4.21-1.88-4.55-.09,0-.16-1.97-.08-1.98,3.19-.5,6.41-.87,10.35-1.35Z"/><path class="d" d="M86.41,21.51c-2.42,.07-4.41-1.78-4.52-4.19-.11-2.35,1.8-4.47,4.14-4.61,2.52-.15,4.61,1.84,4.62,4.38,.01,2.53-1.73,4.35-4.24,4.42Z"/></g></g></g></svg>