<?xml version="1.0" encoding="UTF-8"?><svg xmlns="http://www.w3.org/2000/svg" viewBox="0 0 226.59 112.86"><defs><style>.d{fill:#ffb027;}</style></defs><g id="a"/><g id="b"><g id="c"><g><path class="d" d="M5.44,.4H27.91c3,0,5.44,2.44,5.44,5.44V107.42c0,3-2.44,5.44-5.44,5.44H5.44c-3,0-5.44-2.44-5.44-5.44V5.84C0,2.83,2.44,.4,5.44,.4Z"/><path class="d" d="M145.76,12.58c-.52-1.36-1.54-2.43-2.87-3.01L122.34,.47c-2.74-1.22-5.96,.03-7.18,2.77l-41.15,92.87c-1.21,2.74,.03,5.96,2.77,7.18l20.55,9.1c.71,.31,1.45,.47,2.2,.47,.66,0,1.32-.12,1.96-.37,1.36-.52,2.43-1.54,3.01-2.87L145.66,16.74c.59-1.33,.62-2.81,.1-4.16Z"/><path class="d" d="M189.63,14.73l-19.46-11.24c-2.6-1.5-5.93-.61-7.43,1.99l-50.79,87.97c-1.5,2.6-.61,5.93,1.99,7.43l19.46,11.24c.84,.48,1.77,.73,2.71,.73,.47,0,.95-.06,1.42-.19,1.4-.38,2.58-1.28,3.3-2.53L191.62,22.16c1.5-2.6,.61-5.93-1.99-7.43Z"/><path class="d" d="M66.89,.4h-22.47c-3,0-5.44,2.44-5.44,5.44V107.42c0,3,2.44,5.44,5.44,5.44h22.47c3,0,5.44-2.44,5.44-5.44V5.84c0-3-2.44-5.44-5.44-5.44Zm1.44,107.02c0,.79-.65,1.44-1.44,1.44h-22.47c-.79,0-1.44-.65-1.44-1.44V5.84c0-.79,.65-1.44,1.44-1.44h22.47c.79,0,1.44,.65,1.44,1.44V107.42Z"/><path class="d" d="M221.15,.4h-22.47c-3,0-5.44,2.44-5.44,5.44V107.42c0,3,2.44,5.44,5.44,5.44h22.47c3,0,5.44-2.44,5.44-5.44V5.84c0-3-2.44-5.44-5.44-5.44Zm1.44,107.02c0,.79-.65,1.44-1.44,1.44h-22.47c-.79,0-1.44-.65-1.44-1.44V5.84c0-.79,.65-1.44,1.44-1.44h22.47c.79,0,1.44,.65,1.44,1.44V107.42Z"/></g></g></g></svg>