<?xml version="1.0" encoding="UTF-8"?><svg xmlns="http://www.w3.org/2000/svg" viewBox="0 0 136.37 137.67"><defs><style>.d{fill:#ffb027;}</style></defs><g id="a"/><g id="b"><g id="c"><g><path class="d" d="M134.96,118.37c-5.2-9.29-10.59-18.47-15.93-27.68-.86-1.49-1.99-1.74-3.52-.92-.57,.3-1.12,.63-1.72,.97-2.06-3.56-4.01-6.94-6.07-10.5,.33-.29,.59-.5,.84-.72,18.19-16.36,17.2-44.76-2.06-59.86-.5-.39-.91-1.23-.91-1.86-.07-4.92-.04-9.84-.04-14.77,0-2.25-.76-3.01-3.01-3.01C77.01,.02,51.49,.02,25.97,0c-1.19,0-2.08,.39-2.91,1.23C15.82,8.51,8.55,15.78,1.27,23.02,.39,23.89,0,24.81,0,26.06c.02,36.18,.02,72.35,.02,108.53,0,2.34,.74,3.07,3.09,3.07,33.11,0,66.23,0,99.34,0,2.34,0,3.08-.74,3.08-3.09,0-6.55,0-13.09,0-19.64,0-.43,.04-.85,.08-1.61,3.3,5.71,6.32,11.13,9.54,16.43,3.25,5.35,10.05,6.99,15.43,3.91,5.33-3.05,7.41-9.88,4.37-15.3Zm-17.94-67.9c.03,19.07-15.34,34.61-34.28,34.65-19.17,.05-34.72-15.38-34.76-34.49-.04-19.03,15.46-34.54,34.53-34.56,19.01-.01,34.48,15.41,34.51,34.4ZM22.89,8.34v14.53H8.34c4.83-4.82,9.68-9.66,14.56-14.53ZM99.1,101.9c2.01,2.56,1.88,5.46,1.86,8.43-.05,7.03-.02,14.05-.02,21.08v1.6H4.71V27.55h1.52c6.07,0,12.14,0,18.21,0,2.36,0,3.1-.74,3.1-3.06,0-6.07,0-12.14,0-18.21v-1.6H100.85v11.34c-9.97-5.02-20.22-6.03-30.74-2.45-10.52,3.58-18.07,10.59-22.92,20.61-1.25-.78-1.93-1.52-1.45-3.21,.78-2.75-.87-5.82-3.48-7.21-2.62-1.4-5.81-.97-7.97,1.08-2.2,2.09-2.78,5.32-1.41,8.03,.25,.51,.58,.98,.9,1.53-3.45,6.03-6.91,12.08-10.37,18.13-.19,.33-.42,.65-.56,1-.47,1.18-1.19,1.64-2.58,1.64-3.11,0-5.64,2.33-6.33,5.45-.64,2.88,.8,5.94,3.45,7.39,2.7,1.47,6.02,.98,8.18-1.23,2.17-2.22,2.6-5.52,1.06-8.19-.21-.37-.46-.72-.73-1.14,3.48-6.08,6.97-12.17,10.45-18.26,.17-.29,.36-.57,.49-.87,.47-1.17,1.18-1.92,2.58-1.61,.22,.05,.51,.03,.7-.08,2.49-1.4,3.55,.77,4.91,2.04,.25,.23,.15,.96,.04,1.41-3.6,14.52-.54,27.47,10.09,37.99,11.04,10.92,24.42,13.91,39.37,9.55,.41-.12,.81-.24,1.32-.39,1.99,3.45,3.97,6.87,6.02,10.42-.67,.39-1.28,.72-1.87,1.1-1.25,.81-1.77,2.05-.89,3.17ZM41.3,29.82c.01,1.23-1,2.28-2.23,2.31-1.29,.03-2.37-1.05-2.34-2.34,.03-1.23,1.06-2.24,2.3-2.24,1.23,0,2.26,1.03,2.27,2.26ZM22.95,61.9c.04,1.28-1.04,2.37-2.33,2.35-1.23-.03-2.24-1.06-2.24-2.29,0-1.24,1.02-2.26,2.26-2.27,1.23-.01,2.27,.99,2.31,2.22Zm77.17,23.51c1.34-.79,2.56-1.52,3.93-2.33,1.91,3.29,3.8,6.57,5.77,9.97-1.41,.81-2.63,1.52-3.97,2.29-1.94-3.37-3.83-6.64-5.73-9.93Zm26.22,44.97c-3.01,.7-5.92-.66-7.67-3.67-3.83-6.6-7.63-13.21-11.44-19.82-1-1.73-2-3.45-3.05-5.27,3.98-2.29,7.85-4.53,11.81-6.82,.24,.32,.49,.59,.67,.9,4.67,8.09,9.36,16.17,14,24.29,2.45,4.29,.33,9.3-4.32,10.39Z"/><path class="d" d="M89.53,123.92c-.74-.05-1.5,0-2.35,0v-1.72c0-6.12,0-12.23,0-18.35,0-2.07-.8-2.87-2.85-2.88-2.63-.01-5.25,0-7.88,0-2.26,0-3.02,.75-3.02,2.99,0,6.12,0,12.23,0,18.35v1.49h-4.59c0-.64,0-1.16,0-1.68,0-9.12,0-18.25,0-27.37,0-2.16-.78-2.94-2.93-2.94-2.53,0-5.06,0-7.6,0-2.55,0-3.23,.68-3.24,3.21,0,9.08,0,18.15,0,27.23v1.6h-4.59v-1.66c0-6.12,0-12.23,0-18.35,0-2.06-.81-2.86-2.86-2.87-2.63-.01-5.25,0-7.88,0-2.26,0-3.01,.76-3.02,3,0,6.12,0,12.23,0,18.35v1.48h-4.59c0-3.7,.01-7.28,0-10.86,0-1.96-.83-2.77-2.8-2.78-2.48-.02-4.97,0-7.45,0-2.93,0-3.51,.58-3.51,3.52,0,3.38,0,6.75,0,10.25-.71,0-1.28,0-1.84,0-1.71,.03-2.72,.87-2.74,2.27-.02,1.39,1.01,2.28,2.69,2.32,.24,0,.48,0,.72,0,23.74,0,47.48,0,71.22,0,.38,0,.77,.02,1.15-.02,1.28-.12,2.17-1.04,2.2-2.22,.03-1.25-.88-2.23-2.23-2.33Zm-62.08-.1h-4.43v-8.99h4.43v8.99Zm18.34,.02h-4.41v-18.17h4.41v18.17Zm18.35,0h-4.41v-27.35h4.41v27.35Zm18.36-.02h-4.42v-18.21h4.42v18.21Z"/><path class="d" d="M14.37,82.6c4.35,0,8.7,0,13.04,0s8.89,0,13.33,0c1.8,0,2.85-.88,2.84-2.31-.01-1.43-1.06-2.27-2.88-2.27-8.79,0-17.58,0-26.38,0-1.8,0-2.85,.87-2.84,2.31,.01,1.43,1.06,2.27,2.87,2.28Z"/><path class="d" d="M27.43,91.78c4.4,0,8.79,0,13.19,0,1.91,0,2.99-.86,2.97-2.32-.02-1.43-1.06-2.26-2.89-2.26-8.79,0-17.58,0-26.38,0-1.79,0-2.85,.88-2.83,2.32,.02,1.43,1.06,2.26,2.89,2.26,4.35,0,8.7,0,13.04,0Z"/><path class="d" d="M52.78,50.15c-.06,16.51,13.13,30.06,29.34,30.15,16.79,.09,30.21-13.1,30.29-29.76,.08-16.27-13.25-29.77-29.48-29.86-16.54-.09-30.09,13.16-30.15,29.48Zm31.1-24.88c11.08,.38,21.07,8.86,23.37,19.83,3.52,16.79-9.65,31.85-26.77,30.6-12.5-.91-22.81-11.77-23.09-24.32,0-.28,0-.57,0-1.24,3.27,3.06,6.29,5.83,9.23,8.68,.28,.27,.24,1.03,.12,1.5-.83,3.47,1.05,7,4.38,8.17,3.29,1.15,6.95-.35,8.46-3.51,.87-1.82,.89-3.66,.22-5.56-.16-.46-.07-1.22,.22-1.6,2.92-3.84,5.92-7.62,8.87-11.43,.46-.59,.87-.81,1.67-.64,3.04,.63,6.12-1.01,7.44-3.83,1.32-2.84,.56-6.16-1.85-8.18-2.41-2.01-5.83-2.13-8.37-.3-2.55,1.83-3.59,5.11-2.36,8,.44,1.04,.28,1.68-.39,2.51-2.81,3.5-5.57,7.04-8.31,10.6-.53,.69-1,.87-1.9,.73-1.14-.17-2.38-.08-3.51,.19-.78,.19-1.27,.22-1.88-.37-3.46-3.29-6.96-6.55-10.48-9.78-.66-.6-.76-1.13-.51-1.99,3.13-11.04,13.58-18.47,25.46-18.06Zm-12.75,36.78c-.05-1.23,.93-2.3,2.16-2.37,1.28-.07,2.4,.98,2.41,2.27,.01,1.23-1,2.27-2.23,2.3-1.23,.03-2.29-.97-2.34-2.2Zm18.36-23.16c.07-1.23,1.15-2.21,2.38-2.15,1.23,.05,2.22,1.12,2.19,2.35-.03,1.23-1.08,2.24-2.31,2.22-1.29-.02-2.33-1.13-2.26-2.42Z"/></g></g></g></svg>