<?xml version="1.0" encoding="UTF-8"?><svg xmlns="http://www.w3.org/2000/svg" viewBox="0 0 123.58 123.57"><defs><style>.d{fill:#ffb027;}</style></defs><g id="a"/><g id="b"><g id="c"><g><path class="d" d="M92.43,123.57c-2.57-.67-3.75-2.75-4.82-4.88-.59-1.16-1.22-1.68-2.68-1.48-1.77,.24-3.61,.06-5.41-.04-.65-.04-1.05,.05-1.35,.66-.34,.68-.81,1.3-1.14,1.98-.88,1.82-2.19,3.13-4.14,3.76h-2.17c-2.51-1.05-5.03-2.07-7.53-3.16-2.69-1.17-3.84-3.54-3.14-6.39,.28-1.13,.63-2.25,.82-3.39,.07-.4-.13-.99-.41-1.29-1.46-1.55-2.96-3.06-4.51-4.51-.32-.3-.97-.46-1.42-.39-1.18,.2-2.34,.57-3.51,.85-2.57,.6-4.98-.56-6.05-2.98-1-2.28-1.95-4.58-2.86-6.9-.97-2.48-.13-4.98,2.12-6.41,1.08-.69,2.23-1.28,3.3-1.99,.29-.19,.54-.67,.55-1.03,.05-2.21,.05-4.42-.01-6.63-.01-.38-.28-.9-.59-1.11-1.06-.72-2.22-1.3-3.3-2-2.15-1.38-3.03-3.85-2.13-6.21,.93-2.44,1.93-4.85,3.01-7.23,1.06-2.35,3.49-3.43,6.02-2.82,1.17,.28,2.35,.53,3.5,.91,.66,.22,1,.01,1.44-.45,1.44-1.51,2.9-3,4.43-4.43,.52-.48,.66-.87,.44-1.55-.36-1.11-.6-2.25-.87-3.38-.63-2.63,.52-5.06,3-6.15,2.28-1,4.58-1.95,6.9-2.85,2.47-.96,4.98-.1,6.39,2.15,.64,1.02,1.26,2.05,1.84,3.11,.3,.56,.63,.77,1.31,.74,2.13-.07,4.26-.07,6.39,0,.68,.02,1.01-.19,1.32-.74,.6-1.09,1.23-2.17,1.9-3.22,1.35-2.09,3.8-2.99,6.1-2.12,2.48,.94,4.93,1.95,7.34,3.05,2.31,1.04,3.39,3.43,2.81,5.91-.28,1.21-.67,2.4-.88,3.63-.07,.41,.1,1.01,.39,1.31,1.49,1.58,3.02,3.11,4.59,4.6,.28,.26,.83,.43,1.2,.36,1.18-.22,2.34-.57,3.51-.86,2.7-.66,5.15,.49,6.24,3.02,.97,2.25,1.9,4.51,2.8,6.79,1.02,2.6,.15,5.08-2.25,6.55-1.03,.63-2.11,1.17-3.09,1.86-.33,.23-.58,.8-.59,1.22-.06,2.13-.06,4.26,0,6.38,.01,.42,.29,.97,.63,1.2,1.05,.73,2.21,1.3,3.3,1.99,2.1,1.34,3,3.79,2.13,6.1-.94,2.48-1.96,4.92-3.05,7.34-1.04,2.31-3.43,3.39-5.91,2.81-1.13-.26-2.28-.5-3.38-.87-.77-.25-1.24-.13-1.75,.52-.66,.86-1.43,1.63-2.19,2.4-.89,.91-2.3,1.64-2.6,2.7-.3,1.08,.49,2.45,.81,3.7,.8,3.2-.36,5.51-3.4,6.78-2.4,1-4.79,2.02-7.18,3.04h-2.17Zm-42.5-23.71c1.42-.36,2.73-.71,4.05-1.03,2.28-.57,4.14,.04,5.74,1.81,1.56,1.72,3.22,3.37,4.93,4.93,1.76,1.6,2.37,3.46,1.77,5.75-.33,1.28-.65,2.57-1.02,4.01,1.93,.8,3.87,1.64,5.84,2.39,.2,.08,.7-.26,.87-.52,.66-1.01,1.22-2.08,1.86-3.1,1.21-1.92,2.97-2.65,5.23-2.54,2.28,.11,4.58,.11,6.86,0,2.26-.11,4.02,.61,5.23,2.53,.66,1.05,1.24,2.16,1.93,3.2,.16,.24,.68,.48,.91,.39,1.9-.73,3.78-1.54,5.73-2.35-.36-1.4-.7-2.71-1.03-4.02-.57-2.28,.03-4.15,1.8-5.75,1.69-1.53,3.33-3.14,4.85-4.85,1.65-1.85,3.57-2.5,5.95-1.85,1.24,.33,2.49,.64,3.91,1l2.62-6.28c-1.15-.68-2.23-1.34-3.34-1.97-2.37-1.34-3.26-3.31-2.99-6.04,.2-2.03,.14-4.1-.02-6.14-.2-2.46,.6-4.32,2.72-5.6,1-.6,2.03-1.15,3-1.8,.24-.16,.47-.68,.39-.91-.73-1.9-1.54-3.78-2.36-5.73-1.39,.35-2.7,.68-4.01,1.02-2.29,.6-4.15-.02-5.75-1.77-1.57-1.72-3.21-3.38-4.93-4.94-1.77-1.6-2.38-3.47-1.81-5.75,.33-1.32,.67-2.63,1.03-4.04l-6.28-2.61c-.64,1.08-1.29,2.12-1.88,3.2-1.3,2.38-3.22,3.37-5.97,3.13-2.15-.19-4.34-.12-6.5,.02-2.37,.15-4.15-.67-5.37-2.69-.7-1.17-1.39-2.35-2.16-3.66l-6.29,2.59c.35,1.41,.7,2.76,1.04,4.11,.56,2.24-.05,4.07-1.76,5.65-1.74,1.6-3.42,3.28-5.02,5.02-1.54,1.67-3.34,2.31-5.53,1.79-1.36-.32-2.72-.69-4.2-1.07l-2.61,6.28c1.2,.7,2.32,1.39,3.46,2.04,2.19,1.25,3.07,3.09,2.89,5.62-.16,2.24-.11,4.5,.01,6.74,.13,2.32-.67,4.07-2.65,5.28-1.2,.73-2.41,1.43-3.71,2.19l2.6,6.28Z"/><path class="d" d="M0,27.76c.79-2.03,2.15-3.48,4.43-3.45,2.01,.03,2.41-1.25,3.15-2.71,.92-1.83,.83-3.09-.53-4.65-1.63-1.85-1.35-4.18,.39-5.98,1.15-1.18,2.32-2.35,3.5-3.5,1.84-1.79,4.15-2.08,6.07-.4,1.52,1.32,2.72,1.24,4.54,.56,1.96-.74,2.69-1.75,2.85-3.73C24.59,1.54,26.44,.04,28.83,.01c1.61-.02,3.22,0,4.83,0,2.73,.01,4.5,1.36,4.75,4.08,.18,1.94,.98,2.79,2.78,3.52,1.85,.75,3.09,.83,4.65-.56,1.85-1.64,4.18-1.35,5.98,.39,1.21,1.18,2.41,2.37,3.58,3.58,1.68,1.74,1.96,4.08,.39,5.89-1.33,1.53-1.39,2.76-.63,4.65,.78,1.93,1.77,2.68,3.75,2.84,2.32,.18,3.82,2.02,3.86,4.33,.03,1.65,.01,3.3,0,4.95-.01,2.74-1.34,4.49-4.09,4.73-1.98,.17-2.75,1.05-3.5,2.8-.8,1.87-.77,3.11,.59,4.66,1.58,1.79,1.31,4.15-.36,5.89-1.14,1.19-2.31,2.35-3.49,3.5-1.92,1.88-4.19,2.11-6.27,.36-1.41-1.18-2.5-1.24-4.24-.53-1.95,.79-2.9,1.71-3.05,3.86-.17,2.4-2.04,3.8-4.47,3.82-1.65,.01-3.3,.01-4.95,0-2.56-.02-4.35-1.45-4.57-4.01-.16-1.9-.91-2.81-2.73-3.57-1.92-.8-3.2-.77-4.76,.61-1.68,1.48-4.01,1.3-5.62-.18-1.42-1.31-2.78-2.68-4.09-4.09-1.34-1.45-1.79-3.74-.5-5.09,2.01-2.12,1.64-4,.49-6.28-.5-1-.96-1.51-2.05-1.54-2.5-.07-4.28-1.18-5.12-3.62v-7.24Zm57.45,1.74c-.99-.17-1.94-.3-2.87-.49-1.58-.32-2.63-1.27-3.23-2.77-.7-1.75-1.41-3.49-2.17-5.22-.71-1.62-.56-3.13,.44-4.56,.5-.72,1.04-1.41,1.57-2.11l-2.75-2.74c-.65,.48-1.32,.98-1.99,1.48-1.58,1.17-3.23,1.23-4.99,.39-1.37-.65-2.76-1.32-4.21-1.77-2.12-.66-3.33-1.98-3.62-4.17-.09-.71-.2-1.43-.31-2.18h-3.87c-.13,.84-.24,1.67-.37,2.49-.32,1.93-1.43,3.14-3.29,3.78-1.47,.51-2.94,1.09-4.33,1.79-1.94,.97-3.7,.86-5.39-.49-.56-.45-1.15-.86-1.77-1.32l-2.68,2.81c.46,.62,.99,1.31,1.5,2.01,1.08,1.51,1.18,3.09,.4,4.78-.67,1.45-1.38,2.91-1.86,4.43-.69,2.2-2.13,3.32-4.35,3.57-.64,.07-1.27,.17-1.97,.26v3.87c.87,.15,1.77,.29,2.67,.44,1.75,.29,2.86,1.33,3.49,2.96,.66,1.68,1.33,3.35,2.06,5,.71,1.61,.63,3.12-.37,4.57-.5,.73-1.05,1.42-1.63,2.2l2.93,2.6c.55-.41,1.24-.95,1.96-1.45,1.48-1.04,3.02-1.13,4.67-.38,1.6,.73,3.23,1.41,4.89,2.02,1.91,.71,2.87,2.09,3.14,4.04,.1,.71,.2,1.41,.31,2.16h3.83c.13-.79,.28-1.61,.4-2.42,.29-2,1.43-3.22,3.33-3.87,1.48-.51,2.94-1.08,4.33-1.78,1.9-.96,3.62-.84,5.29,.46,.57,.44,1.16,.87,1.7,1.28l2.7-2.89c-.31-.41-.79-1.05-1.27-1.69-1.21-1.6-1.33-3.27-.45-5.09,.67-1.37,1.32-2.76,1.77-4.21,.66-2.13,1.99-3.33,4.18-3.61,.71-.09,1.42-.2,2.18-.31v-3.83Z"/><path class="d" d="M82.69,101.5c-10.3,.06-18.8-8.34-18.93-18.71-.12-10.33,8.36-18.94,18.74-19.02,10.39-.08,18.86,8.31,18.96,18.78,.1,10.36-8.35,18.89-18.78,18.95Zm13.24-18.51c.34-7.15-5.52-13.37-12.89-13.67-7.22-.3-13.39,5.47-13.73,12.84-.34,7.3,5.48,13.47,13.02,13.8,7.14,.32,13.24-5.5,13.6-12.96Z"/><path class="d" d="M20.22,31.38c0-6.17,4.93-11.12,11.09-11.15,6.22-.04,11.22,4.9,11.25,11.12,.03,6.19-4.96,11.21-11.16,11.23-6.19,.02-11.19-4.98-11.18-11.19Zm11.21,6.24c3.4-.03,6.21-2.88,6.18-6.27-.03-3.4-2.89-6.22-6.27-6.18-3.4,.03-6.22,2.89-6.19,6.27,.04,3.4,2.89,6.21,6.28,6.19Z"/></g></g></g></svg>